<svg
  xmlns="http://www.w3.org/2000/svg"
  id="Layer_1"
  x="0"
  y="0"
  version="1.1"
  viewBox="0 0 74 38"
  width="74"
  height="38"
  xml:space="preserve"
  fill="#0d102b"
>
  <path
    d="M21.7 26.7c-3 0-5.5 2.5-5.5 5.5s2.5 5.5 5.5 5.5 5.5-2.5 5.5-5.5c-.1-3-2.5-5.5-5.5-5.5M6.3 26.7c-3 0-5.5 2.5-5.5 5.5s2.5 5.5 5.5 5.5 5.5-2.5 5.5-5.5-2.5-5.5-5.5-5.5M37 26.7c-3 0-5.5 2.5-5.5 5.5s2.5 5.5 5.5 5.5 5.5-2.5 5.5-5.5-2.5-5.5-5.5-5.5M67.7 26.7c-3 0-5.5 2.5-5.5 5.5s2.5 5.5 5.5 5.5 5.5-2.5 5.5-5.5c-.1-3-2.5-5.5-5.5-5.5M52.3 26.7c-3 0-5.5 2.5-5.5 5.5s2.5 5.5 5.5 5.5 5.5-2.5 5.5-5.5-2.5-5.5-5.5-5.5M10.9 11.2c0-2.6-1.9-4.5-4.5-4.5s-4.5 1.9-4.5 4.5 1.9 4.5 4.5 4.5 4.5-2 4.5-4.5M0 11.2C0 7.6 2.9 5 6.4 5c3.6 0 6.4 2.7 6.4 6.2v5.5c0 .6-.4.9-1 .9s-1-.4-1-.9V15h-.1c-.8 1.3-2.2 2.4-4.5 2.4-3.4 0-6.2-2.7-6.2-6.2m26.2 0c0-2.6-1.9-4.5-4.5-4.5s-4.5 1.9-4.5 4.5 1.9 4.5 4.5 4.5 4.5-2 4.5-4.5m-8.4 10.2c-.5-.2-.8-.7-.6-1.2.2-.5.7-.8 1.2-.5.9.4 2 .7 3.1.7 2.9 0 4.6-1.7 4.6-4.6V15H26a5.1 5.1 0 01-4.5 2.4c-3.4 0-6.3-2.7-6.3-6.2 0-3.6 2.9-6.2 6.4-6.2 3.6 0 6.4 2.7 6.4 6.2v4.6c0 3.9-2.5 6.6-6.6 6.6-1.2-.2-2.5-.4-3.6-1m23.7-10.2c0-2.6-1.9-4.5-4.5-4.5s-4.5 1.9-4.5 4.5 1.9 4.5 4.5 4.5 4.5-2 4.5-4.5m-10.9 0C30.6 7.6 33.4 5 37 5s6.4 2.7 6.4 6.2c0 3.6-2.8 6.2-6.4 6.2s-6.4-2.7-6.4-6.2m26.2 0c0-2.6-1.9-4.5-4.5-4.5s-4.5 1.9-4.5 4.5 1.9 4.5 4.5 4.5c2.5 0 4.5-2 4.5-4.5m-10.9 0c0-3.6 2.8-6.2 6.3-6.2 2.2 0 3.7 1.1 4.5 2.4h.1V.9c0-.6.4-.9 1-.9s1 .4 1 .9v10.2c0 3.6-2.8 6.2-6.4 6.2-3.7.1-6.5-2.6-6.5-6.1m26.2 0c0-2.6-1.9-4.5-4.5-4.5s-4.5 1.9-4.5 4.5 1.9 4.5 4.5 4.5c2.5 0 4.5-2 4.5-4.5m-10.9 0c0-3.6 2.9-6.2 6.4-6.2 3.6 0 6.4 2.7 6.4 6.2v5.5c0 .6-.4.9-1 .9s-1-.4-1-.9V15h-.1c-.8 1.3-2.2 2.4-4.5 2.4-3.4 0-6.2-2.7-6.2-6.2"
  />
</svg>
