<svg
  xmlns="http://www.w3.org/2000/svg"
  viewBox="0 0 111 21.9"
  width="111"
  height="22"
  fill="#0d102b"
>
  <path
    d="M24.5 0v21.9H0V0h24.5zm-7.8 4.4H2.5v1.8h4.2v10.9h2.8V6.2h6.3c1.9 0 2.8 1 2.8 4.4 0 3.4-.8 4.7-2.7 4.7h-2.8V6.8h-2.9v10.3h5.7c3.3 0 5.7-.7 5.7-6.6.2-4.3-1.5-6.1-4.9-6.1zm82.9 8.9v-1.2c-.3.9-1.2 1.5-2.2 1.4-2.1 0-2.9-1.7-2.9-3.6 0-1.8.8-3.4 2.8-3.4.8 0 1.6.3 2 1V3.7h3.2v9.6h-2.9zm-1-4.8c-.7 0-.8.7-.8 1.4s.1 1.5.8 1.5.8-.7.8-1.4c0-.8-.1-1.5-.8-1.5zM33.1 4.4h4.7l3.2 8.9h-3.6l-.6-1.9h-2.9l-.6 1.9h-3.4l3.2-8.9zm1.3 4.9h2l-1-2.9-1 2.9zm7.1-2.6h3.1v1.2c.4-.9 1.3-1.4 2.3-1.3.9 0 1.8.3 2.1 1.1.2-.8 1.3-1.1 2.1-1.1 2.4 0 2.4 1.5 2.4 2.8v4h-3.2V9.6c0-.4 0-.9-.6-.9s-.6.5-.6.9v3.8h-3.2V9.6c0-.4 0-.9-.6-.9s-.6.5-.6.9v3.8h-3.2V6.7c.1 0 0 0 0 0zm16 4.1c.1.8.8 1 1.8 1 .8 0 1.5-.1 2.2-.4v1.7c-1 .3-2 .4-3 .4-2.7 0-4.1-1.3-4.1-3.6s1.4-3.4 4.1-3.4c2.6 0 3.5 1.6 3.5 3.9v.4h-4.5zm1.6-1.4c0-.5-.1-1.3-.8-1.3s-.9.8-.9 1.3h1.7zm6.7-2.7v1.5c.4-.9 1-1.7 2-1.7.2 0 .4 0 .5.1v2.7c-.2-.1-.5-.1-.7-.1-.5 0-.9.2-1.2.5-.3.3-.5.8-.5 1.2v2.4h-3.2V6.6l3.1.1zm6.8-.7h-3.2V3.8h3.2V6zm-3.3.7h3.2v6.7h-3.2V6.7zm5.2 0V5.2l3.2-1v2.5h1.5v1.9h-1.5v1.9c0 .2 0 .4.1.6.1.2.3.3.6.3s.5 0 .8-.1v1.9c-.7.2-1.5.3-2.2.3-1.7 0-2.5-.8-2.5-2.6V8.6h-1.1V6.7h1.1zm8.7 0v1.5c.4-.9 1-1.7 2-1.7.2 0 .4 0 .5.1v2.7c-.2-.1-.5-.1-.7-.1-.5 0-.9.2-1.2.5-.3.3-.5.8-.5 1.2v2.4h-3.2V6.6l3.1.1c-.1 0 0 0 0 0zm3.6.2c.9-.3 1.8-.4 2.8-.4 1.8 0 4.1.3 4.1 2.8v4.1h-3v-1c-.5.7-1.3 1.2-2.2 1.1-1.2 0-2.4-.6-2.4-2 0-2.1 1.8-2.5 3.5-2.5.4 0 1 .1 1.3.1 0-.9-.9-1-1.7-1-.8 0-1.5.2-2.2.6l-.2-1.8zm3.9 3.5h-.3c-.7 0-1.4.1-1.4.8 0 .2.1.4.2.5.1.1.3.2.5.1.3 0 .6-.2.8-.4.2-.2.3-.5.2-.8v-.2zm15.8.4c0 .8.8 1 1.8 1 .8 0 1.5-.1 2.2-.4v1.7c-1 .3-2 .4-3 .4-2.7 0-4.1-1.3-4.1-3.6s1.4-3.4 4.1-3.4c2.6 0 3.5 1.6 3.5 3.9v.4h-4.5zm1.7-1.5c0-.5-.1-1.3-.8-1.3s-.9.8-.9 1.3h1.7z"
  />
</svg>
