<svg
  xmlns="http://www.w3.org/2000/svg"
  id="Layer_1"
  x="0"
  y="0"
  version="1.1"
  viewBox="0 0 100 17"
  xml:space="preserve"
  width="100"
  height="17"
  fill="#0d102b"
>
  <path
    d="M39.2 1.5c0-.8.7-1.5 1.5-1.5s1.5.7 1.5 1.5S41.5 3 40.6 3c-.7 0-1.4-.7-1.4-1.5m24 10.2c0-.8.7-1.5 1.5-1.5s1.5.7 1.5 1.5-.7 1.5-1.5 1.5-1.5-.7-1.5-1.5m-38.7-8c-2.8 0-4.8 2-4.8 4.7s2 4.7 4.8 4.7 4.8-2 4.8-4.7-2-4.7-4.8-4.7zm0 7.3c-1.3 0-2.2-1-2.2-2.5S23.2 6 24.5 6s2.2 1 2.2 2.5c.1 1.5-.8 2.5-2.2 2.5zm16.3-7.1h-1.2v9.2h2.5V5.3c0-.9-.4-1.4-1.3-1.4zm8.2-.2c-1.3 0-2.2.6-2.7 1.1l-.2.2-.1-.2c-.1-.5-.6-.8-1.3-.8h-1.2v9.2h2.6V9c0-.4.1-.8.2-1.1.3-1 1.1-1.6 2.1-1.6.8 0 1.1.4 1.1 1.5v4c0 .9.4 1.4 1.4 1.4h1.2V7.4c.2-2.5-.9-3.7-3.1-3.7zm-12.7 5c-.1-.2-.2-.4-.4-.5l-.1-.1.1-.1c.1-.1.3-.3.4-.5l2.4-3.6h-3l-1.8 2.8c-.1.2-.3.2-.6.2h-.4V1.5c0-1.1-.7-1.2-1.4-1.2h-1.2V13h2.6V9.2h.2c.3 0 .5 0 .6.2l1.5 2.7c.4.7.8.9 1.6.9h2l-1.5-2.5-1-1.8zm-22-5c-2.8 0-4.8 2-4.8 4.7s2 4.7 4.8 4.7 4.8-2 4.8-4.7-2-4.7-4.8-4.7zm0 7.3c-1.3 0-2.2-1-2.2-2.5S13 6 14.3 6s2.2 1 2.2 2.5-.9 2.5-2.2 2.5zM80.5 3.7c-2.8 0-4.8 2-4.8 4.7s2 4.7 4.8 4.7 4.8-2 4.8-4.7-2-4.7-4.8-4.7m0 7.3c-1.3 0-2.2-1-2.2-2.5S79.2 6 80.5 6s2.2 1 2.2 2.5-.9 2.5-2.2 2.5M61 3.9c-.5 0-.9.2-1.1.6l-.1.1-.1-.1c-.4-.3-1.2-.8-2.4-.8-2.4 0-4.1 1.9-4.1 4.6s1.7 4.6 4.1 4.6c.8 0 1.5-.2 2-.6l.2-.1v.3c0 1.2-.8 1.9-2.2 1.9-.7 0-1.3-.2-1.8-.3-.6-.2-.9 0-1.1.5l-.2.5-.3.7.2.1c1 .5 2.2.8 3.2.8 2.3 0 4.9-1.2 4.9-4.4V3.9H61m-3.2 6.7c-1.4 0-1.9-1.2-1.9-2.4 0-.5.1-2.2 1.8-2.2.8 0 1.9.2 1.9 2.3 0 1.9-1 2.3-1.8 2.3M7.3 6.6l-.4-.2.3-.3c.4-.3 1-1.1 1-2.4 0-2-1.5-3.3-3.9-3.3h-3C.6.4 0 1 0 1.7V13h4.4c2.7 0 4.4-1.4 4.4-3.7 0-1.2-.6-2.2-1.5-2.7zM2.4 4.1v-.7c0-.6.2-.9.8-.9h1.1c.9 0 1.5.6 1.5 1.5 0 .7-.4 1.5-1.5 1.5H2.4V4.1zm2.2 6.8H2.5V8.4c0-.5.2-.8.7-.9h1.5c1 0 1.7.7 1.7 1.7-.1 1.1-.8 1.7-1.8 1.7zm69.7-1S73.2 11 71.8 11c-1.3 0-2.6-.8-2.6-2.6 0-1.5 1-2.6 2.5-2.6.5 0 1 .2 1.1.4.1.4.5.7.9.7h1.4V5.7c0-1.6-2-2.1-3.3-2.1-2.9 0-5 2-5 4.8s2.1 4.8 4.9 4.8c2.5 0 3.8-1.6 3.8-1.6l.1-.1-1.1-1.8-.2.2m22.6-6.1c-1.1 0-2.1.5-2.8 1.4l-.2.2-.1-.3c-.5-.9-1.3-1.3-2.5-1.3s-2 .7-2.4 1.1l-.2.3-.1-.4c-.1-.5-.6-.8-1.3-.8h-1.1v9.1h2.5v-4c0-.4 0-.7.1-1.1.2-1 .9-2 2-1.9.7.1 1 .6 1 1.6v5.4h2.5v-4c0-.4 0-.8.1-1.1.2-.9.9-1.9 1.9-1.9.8 0 1.1.4 1.1 1.6v4.1c0 .9.4 1.3 1.3 1.3h1.2V7.3c.1-2.4-.9-3.5-3-3.5"
  />
</svg>
