<svg
  xmlns="http://www.w3.org/2000/svg"
  id="Layer_1"
  viewBox="0 0 39.2 39.2"
  width="39.2"
  height="39.2"
  fill="#0d102b"
>
  <path
    d="M1019.6 1820.1c-4.8 0-9.2 2-12.4 5.1-3.2 3.2-5.1 7.5-5.1 12.4 0 4.8 2 9.2 5.1 12.4 3.2 3.2 7.5 5.1 12.4 5.1 4.8 0 9.2-2 12.4-5.1 3.2-3.2 5.1-7.5 5.1-12.4 0-4.8-2-9.2-5.1-12.4-3.2-3.1-7.6-5.1-12.4-5.1m0-2.1c10.8 0 19.6 8.8 19.6 19.6s-8.8 19.6-19.6 19.6-19.6-8.8-19.6-19.6 8.8-19.6 19.6-19.6"
    transform="translate(-1000 -1818)"
  />
  <path
    d="M1010.3 1837.4c0-1.1-.8-1.8-1.8-1.8h-.7v3.6h.6c1.1 0 1.9-.5 1.9-1.8m11.7 1.3l-4.8 3.8-4.4-3.5c-.6 1.5-2.2 2.6-4 2.6h-3.8v-8.4h3.8c2 0 3.4 1.3 4 2.6l4.4-3.5 1.6 1.3-4.1 3.2.8.6 4.1-3.2 1.6 1.3-4.1 3.2.8.6 4.1-3.2v-2.9h2.9v6h2.9v2.5h-5.9v-3zm9.6.5h2.9v2.5h-5.9v-8.4h2.9c.1-.1.1 5.9.1 5.9z"
    transform="translate(-1000 -1818)"
  />
</svg>
