<svg
  xmlns="http://www.w3.org/2000/svg"
  id="Layer_1"
  x="0"
  y="0"
  version="1.1"
  viewBox="0 0 76 29"
  xml:space="preserve"
  width="76"
  height="29"
  fill="#0d102b"
>
  <path
    d="M52.6 12.2c0-4.4-3.5-5.9-7.7-5.9-3.5 0-7.5.9-7.9 4.7h3.7c.1-1.5 1.7-2.4 3.8-2.4 2.8 0 4.5 1 4.5 3.6v.4h-4.6c-5.5.1-8.7 1.5-8.7 5.3 0 2.7 2.4 5 6.7 5 2.9 0 5-.6 6.8-2.8 0 .7 0 1.4.1 2.2h3.3c-.1-1-.1-2-.1-3 0 0 0-7.1.1-7.1zm-3.7 3.1c0 3.3-2 5.3-5.7 5.3-2.7 0-3.8-1.4-3.8-2.8 0-2.1 2-2.7 5.2-2.8 1.4-.1 3-.1 4.3-.1v.4zM17.6 14.6c0-5.7-3.6-8.3-8.6-8.3-6.2 0-9.1 3.4-9.1 8.5 0 4.6 2.8 8.1 9.1 8.1 3.5 0 7.5-1.3 8.2-5.1h-3.6c-.6 1.8-2.5 2.7-4.6 2.7-3 0-5.2-1.9-5.4-5.1 0 0 14 0 14 .1v-.9zM3.7 13.1C4.1 10 6.3 8.6 9 8.6c2.5 0 4.9 1.2 5.1 4.5H3.7z"
  />
  <path
    d="M27.8 6.2c-2.4 0-4.8.6-6.5 2.7V0h-3.6v18.8c0 1.1 0 2.5-.1 3.6h3.5c.1-.7.1-1.5.1-2.2 1.5 1.8 3.9 2.7 6.5 2.7 4.9 0 8.4-3.5 8.4-8.3 0-5.7-4.4-8.4-8.3-8.4zm-1 14.3c-3.2 0-5.5-2.4-5.5-5.9s2.2-5.9 5.5-5.9 5.5 2.4 5.5 5.9-2.2 5.9-5.5 5.9zM70.4 6.8L59.5 28.2h-4l3.1-6-8.1-15.4h4.1l6 12.1 6-12.1zM72 6.8h.3v.4h.4v.2h-.4v.9c0 .2 0 .2.2.2h.2v.2h-.3c-.3 0-.5-.1-.5-.4v-.9h-.4v-.2h.5v-.4zM73.2 7.5v-.3h.3v.3c.2-.2.4-.3.6-.3.3 0 .5.1.6.4.1-.2.3-.4.6-.4.4 0 .7.2.7.7v.9h-.3V8c0-.4-.1-.6-.4-.6s-.5.2-.5.7v.7h-.3v-.9c0-.4-.1-.6-.4-.6s-.5.2-.5.6v.7h-.3l-.1-1.1z"
  />
</svg>
