<svg
  xmlns="http://www.w3.org/2000/svg"
  id="Layer_1"
  x="0"
  y="0"
  version="1.1"
  viewBox="0 0 84 22"
  xml:space="preserve"
  width="84"
  height="22"
  fill="#0d102b"
>
  <path
    d="M27.6.1v16.3l-13.8 4.7L0 16.4V0l27.6.1zM6.2 4.4H1.9v7.9c0 2.6 1.9 3.9 3.9 3.9 1.7 0 2.9-.6 3.7-1.7V16h4.2V4.4H9.4v6.1c0 1.8-1 2.2-1.7 2.2-1.3 0-1.4-.9-1.4-2.3l-.1-6zm14.2-.3c-2.3 0-5.4.8-5.4 3.6 0 2 1.3 3 4.7 3.6 2 .4 2.4.6 2.4 1.2 0 .7-.9.9-1.5.9-.5 0-1-.1-1.2-.3-.3-.3-.5-.6-.5-1h-4.2c.1 3 3 4 5.7 4 2.8 0 5.8-.9 5.8-4 0-1.9-1.3-2.7-2.7-3.2-1.5-.5-3.1-.6-3.8-.9-.2-.1-.5-.3-.5-.6 0-.8.7-.9 1.3-.9.4 0 .7.1 1 .3.2.2.4.5.5.9h4c-.2-2.9-3.2-3.6-5.6-3.6zM35.3 7.3c-1.6 0-1.9 1.5-1.9 2.8 0 1.4.4 2.9 1.9 2.9 1.6 0 1.9-1.5 1.9-2.9.1-1.4-.3-2.8-1.9-2.8M29.2.1h4.4v5.6c.7-1 1.8-1.5 3.1-1.5 3.8 0 4.9 3.3 4.9 6 0 2.9-1.6 6.1-4.8 6.1-2.1 0-2.8-.8-3.4-1.5v1.3h-4.2V.1m20.4 10.6c-.5.3-1.1.4-1.7.6-1 .2-1.5.5-1.5 1.2 0 .5.6 1.1 1.4 1.1 1 0 1.8-.6 1.8-1.8v-1.1zm4.2 2.6c0 .9 0 1.8.5 2.6h-4.5c-.1-.3-.2-.7-.2-1.1-.9 1.1-2.3 1.4-3.7 1.4-2.2 0-4-1.1-4-3.5 0-3.6 4.2-3.5 6.5-3.9.6-.1 1.2-.3 1.2-1 0-.8-.7-1.1-1.4-1.1-1.3 0-1.6.7-1.6 1.2h-4.1c.1-3.2 3.2-3.8 5.9-3.8 5.5 0 5.4 2.3 5.4 4.5v4.7zm1.6-8.9h4.2v1.5c.8-1.2 2-1.7 3.7-1.7 2.1 0 3.9 1.3 3.9 3.9V16H63v-6c0-1.3-.2-2.3-1.4-2.3-.8 0-1.7.4-1.7 2.2V16h-4.4l-.1-11.6M68.9.1h4.4v7.6l2.8-3.3H81l-4.1 4.3 4.7 7.1h-5.3L74 11.7l-.8.8v3.3h-4.4V.1m13.8 15.3h.2V15h.4c.1 0 .1.1.1.2v.1h.2V15c0-.1 0-.1-.1-.2 0-.1-.1-.1-.2-.1.1 0 .1 0 .2-.1.1 0 .1-.1.1-.2s-.1-.2-.2-.3h-.7v1.3zm.5-.6h-.4v-.4h.4s.1.1.1.2c0 .2 0 .2-.1.2zm.6-.6a.9.9 0 00-.7-.3c-.3 0-.5.1-.7.3-.2.2-.3.4-.3.7 0 .3.1.5.3.7.2.2.4.3.7.3.3 0 .5-.1.7-.3.2-.2.3-.4.3-.7 0-.3-.1-.5-.3-.7zm-.1.1c.2.2.3.4.2.6 0 .2-.1.4-.2.6-.2.2-.4.2-.6.2s-.4-.1-.6-.2c-.2-.2-.3-.4-.2-.6 0-.2.1-.4.2-.6.2-.2.4-.3.6-.3.2 0 .4.1.6.3z"
  />
</svg>
