<svg width="1027" height="140" viewBox="0 0 1027 140" fill="none" xmlns="http://www.w3.org/2000/svg">
<path fill-rule="evenodd" clip-rule="evenodd" d="M22.0186 10.7957C34.6609 4.39745 50.2282 0 66.9654 0C82.8476 0 98.9619 4.19771 111.64 10.6139C113.617 11.6147 114.409 14.0291 113.408 16.0067C112.407 17.9842 109.993 18.776 108.015 17.7751C96.4142 11.9038 81.5367 8.02618 66.9654 8.02618C51.6131 8.02618 37.2795 12.0677 25.643 17.957C23.6654 18.9578 21.251 18.166 20.2502 16.1885C19.2493 14.2109 20.0411 11.7965 22.0186 10.7957ZM29.9512 24.7394C40.9002 19.6284 54.9892 16.9084 66.9129 16.9084C78.8532 16.9084 92.5897 19.6347 103.525 24.7394C115.715 30.4297 125.914 38.6891 132.902 48.3937C134.197 50.1923 133.788 52.7003 131.99 53.9953C130.191 55.2903 127.683 54.8821 126.388 53.0834C120.285 44.6069 111.212 37.1851 100.13 32.0122C90.3706 27.4564 77.8115 24.9346 66.9129 24.9346C55.9976 24.9346 43.0924 27.4627 33.3462 32.0122C22.7336 36.9661 13.2208 44.9353 7.27887 53.2531C5.99055 55.0565 3.48416 55.4741 1.68068 54.1858C-0.122787 52.8975 -0.540397 50.3911 0.747927 48.5876C7.53282 39.0897 18.1495 30.2484 29.9512 24.7394ZM66.336 33.4534C89.6851 33.2289 110.041 45.2532 120.361 62.495C125.777 71.5415 127.658 80.6305 127.658 88.3734C127.658 101.329 115.812 109.477 105.1 109.477C99.7148 109.477 94.0239 108.035 89.5312 104.61C84.9153 101.09 81.8531 95.6805 81.6353 88.495C81.496 83.8984 79.379 80.829 76.4901 78.7878C73.4678 76.6522 69.5794 75.6599 66.3746 75.6599C57.672 75.6599 51.4793 82.0735 51.4793 88.3734C51.4793 93.4075 53.0522 100.435 55.1318 105.103C57.2357 109.825 61.0052 115.322 64.7039 118.669L64.742 118.704L64.7792 118.739C70.7809 124.457 78.3025 129.563 89.3249 132.073C91.4859 132.565 92.8388 134.716 92.3466 136.877C91.8544 139.038 89.7035 140.391 87.5425 139.899C74.8322 137.004 66.0745 131.05 59.2795 124.585C54.6376 120.371 50.2754 113.925 47.8004 108.37C45.2941 102.744 43.4532 94.6076 43.4532 88.3734C43.4532 76.8558 54.0672 67.6337 66.3746 67.6337C70.9876 67.6337 76.5535 69.0049 81.1217 72.2328C85.8234 75.555 89.4335 80.8489 89.6578 88.2519C89.8037 93.0658 91.7413 96.2015 94.3978 98.2271C97.1776 100.347 101.032 101.451 105.1 101.451C112.583 101.451 119.632 95.7811 119.632 88.3734C119.632 81.935 118.072 74.2974 113.475 66.6173C104.658 51.888 86.992 41.2814 66.4132 41.4792C48.5746 41.6508 29.5596 50.0728 19.825 66.427C15.6726 73.403 13.5901 81.3751 13.8426 89.7064C14.1882 101.11 15.859 105.925 18.858 113.863C19.6413 115.937 18.5955 118.252 16.5221 119.036C14.4488 119.819 12.133 118.773 11.3497 116.7C8.16721 108.275 6.20179 102.545 5.82011 89.9495C5.52163 80.0996 7.98999 70.6178 12.9281 62.3217C24.4048 43.0409 46.3579 33.6455 66.336 33.4534ZM24.7266 87.6087C24.7507 66.911 44.7072 50.5435 66.3746 50.5435C87.9356 50.5435 108.75 65.3737 108.75 88.9188C108.75 91.1352 106.953 92.9319 104.737 92.9319C102.52 92.9319 100.724 91.1352 100.724 88.9188C100.724 71.011 84.812 58.5697 66.3746 58.5697C48.0566 58.5697 32.7528 72.363 32.7528 87.6462V87.6829L32.7521 87.7196C32.5985 96.1131 33.9365 104.143 38.3148 112.732C42.7703 121.471 48.1294 127.412 53.0269 131.723C54.6905 133.187 54.8519 135.723 53.3875 137.387C51.923 139.051 49.3872 139.212 47.7236 137.748C42.2163 132.899 36.1628 126.182 31.1642 116.377C26.0947 106.433 24.5578 97.0686 24.7266 87.6087ZM66.3746 84.3603C68.591 84.3603 70.3877 86.157 70.3877 88.3734C70.3877 93.4169 71.7725 98.1891 74.3949 102.729C76.9318 107.121 80.2357 110.285 84.7385 113.013C91.2643 116.574 95.7869 117.808 102.634 117.633L102.662 117.632L102.689 117.632C105.367 117.6 108.517 117.379 111.016 116.944C113.199 116.563 115.278 118.024 115.659 120.207C116.04 122.391 114.578 124.47 112.395 124.85C109.353 125.381 105.762 125.621 102.811 125.657C94.3325 125.87 88.4182 124.175 80.8113 120.013L80.7373 119.973L80.6651 119.929C75.1434 116.599 70.7711 112.502 67.4448 106.744C64.1907 101.11 62.3615 94.9659 62.3615 88.3734C62.3615 86.157 64.1582 84.3603 66.3746 84.3603Z" fill="#F04405"/>
<path d="M179.36 65.9776H206.789V75.2612H179.36V106.277H167.123V33.485H211.853L210.587 42.7686H179.36V65.9776Z" fill="white"/>
<path d="M244.41 23.252C246.66 23.252 248.489 23.9904 249.895 25.4674C251.372 26.874 252.111 28.6322 252.111 30.7421C252.111 32.852 251.372 34.6103 249.895 36.0169C248.489 37.4235 246.66 38.1268 244.41 38.1268C242.089 38.1268 240.225 37.4235 238.818 36.0169C237.412 34.6103 236.708 32.852 236.708 30.7421C236.708 28.5619 237.412 26.7685 238.818 25.3619C240.295 23.9553 242.159 23.252 244.41 23.252ZM252.533 97.6263H267.724V106.277H224.154V97.6263H240.717V59.2259H224.682V50.5753H252.533V97.6263Z" fill="white"/>
<path d="M281.186 50.5753H291.419L292.263 57.8545C294.584 55.0413 297.292 52.8962 300.386 51.4193C303.551 49.872 306.857 49.0984 310.303 49.0984C315.437 49.0984 319.305 50.5401 321.908 53.4237C324.51 56.3072 325.811 60.3864 325.811 65.6611V106.277H313.995V71.5689C313.995 68.1227 313.784 65.4853 313.362 63.6567C313.011 61.7578 312.272 60.3864 311.147 59.5424C310.022 58.6281 308.334 58.171 306.083 58.171C303.551 58.171 301.125 58.9446 298.804 60.4919C296.553 62.0391 294.619 63.9732 293.002 66.2941V106.277H281.186V50.5753Z" fill="white"/>
<path d="M390.227 53.3182C388.188 54.0215 385.867 54.5138 383.265 54.7951C380.733 55.0061 377.673 55.1116 374.087 55.1116C377.462 56.6589 379.994 58.5929 381.682 60.9138C383.37 63.2347 384.214 66.048 384.214 69.3535C384.214 73.0107 383.3 76.2459 381.471 79.0591C379.713 81.8723 377.181 84.0877 373.876 85.7053C370.57 87.3229 366.667 88.1317 362.166 88.1317C359.001 88.1317 356.469 87.8152 354.57 87.1822C353.796 87.7449 353.198 88.4482 352.776 89.2921C352.355 90.0658 352.144 90.9097 352.144 91.824C352.144 94.6372 354.429 96.0439 359.001 96.0439H368.706C372.645 96.0439 376.161 96.712 379.256 98.0483C382.35 99.3845 384.742 101.248 386.43 103.64C388.188 105.96 389.067 108.598 389.067 111.552C389.067 117.108 386.676 121.398 381.893 124.422C377.111 127.517 370.218 129.064 361.216 129.064C354.957 129.064 349.998 128.396 346.341 127.06C342.754 125.794 340.187 123.895 338.64 121.363C337.163 118.901 336.425 115.701 336.425 111.763H346.974C346.974 113.873 347.361 115.525 348.135 116.721C348.979 117.987 350.42 118.901 352.46 119.464C354.5 120.097 357.453 120.413 361.322 120.413C366.948 120.413 370.992 119.71 373.454 118.303C375.915 116.967 377.146 114.963 377.146 112.29C377.146 110.04 376.161 108.281 374.192 107.015C372.293 105.82 369.691 105.222 366.385 105.222H356.785C351.792 105.222 347.994 104.202 345.392 102.163C342.86 100.123 341.594 97.5559 341.594 94.4614C341.594 92.5625 342.121 90.7339 343.176 88.9756C344.231 87.2174 345.743 85.7053 347.713 84.4393C344.407 82.6811 341.981 80.5712 340.434 78.1096C338.957 75.5777 338.218 72.4832 338.218 68.826C338.218 64.9578 339.203 61.5468 341.172 58.5929C343.141 55.5687 345.884 53.2478 349.401 51.6302C352.917 49.9423 356.926 49.0984 361.427 49.0984C367.476 49.1687 372.258 48.7467 375.775 47.8324C379.361 46.9181 383.159 45.4763 387.168 43.5071L390.227 53.3182ZM361.533 57.327C357.805 57.327 354.992 58.382 353.093 60.4919C351.194 62.5314 350.245 65.3095 350.245 68.826C350.245 72.4129 351.194 75.2612 353.093 77.3711C355.062 79.4107 357.911 80.4305 361.638 80.4305C365.155 80.4305 367.827 79.4107 369.656 77.3711C371.484 75.3316 372.399 72.4129 372.399 68.615C372.399 61.0897 368.777 57.327 361.533 57.327Z" fill="white"/>
<path d="M409.07 82.2239C409.422 87.6394 410.969 91.7185 413.712 94.4614C416.525 97.134 420.041 98.4702 424.261 98.4702C426.863 98.4702 429.325 98.0834 431.646 97.3098C434.037 96.4658 436.464 95.235 438.925 93.6174L443.989 100.791C441.387 102.971 438.327 104.659 434.811 105.855C431.294 107.051 427.602 107.648 423.734 107.648C415.224 107.648 408.613 105.011 403.901 99.7362C399.188 94.3911 396.832 87.2877 396.832 78.4261C396.832 72.87 397.852 67.8766 399.892 63.4457C401.931 58.9446 404.885 55.4281 408.753 52.8962C412.622 50.3643 417.123 49.0984 422.257 49.0984C429.642 49.0984 435.479 51.5951 439.769 56.5885C444.13 61.5117 446.31 68.2985 446.31 76.9492C446.31 79.0591 446.204 80.8173 445.993 82.2239H409.07ZM422.362 57.8545C418.564 57.8545 415.47 59.2259 413.079 61.9688C410.687 64.7117 409.316 68.7908 408.964 74.2063H434.811C434.67 68.9315 433.545 64.8875 431.435 62.0743C429.325 59.2611 426.301 57.8545 422.362 57.8545Z" fill="white"/>
<path d="M497.75 49.2038C500.634 49.2038 503.447 49.661 506.19 50.5753L504.186 71.1469H495.746V59.7534C491.878 59.8237 488.502 61.371 485.618 64.3952C482.805 67.4194 480.555 71.6744 478.867 77.1602V97.8373H490.049V106.277H458.823V97.8373H467.051V59.0149H458.823V50.5753H476.018L478.128 63.4457C480.308 58.6633 482.946 55.1116 486.04 52.7907C489.205 50.3995 493.109 49.2038 497.75 49.2038Z" fill="white"/>
<path d="M544.549 49.0984C558.053 49.0984 564.804 58.8391 564.804 78.3206C564.804 87.1119 562.941 94.2153 559.213 99.6307C555.486 104.976 550.176 107.648 543.283 107.648C537.446 107.648 532.734 105.609 529.147 101.53V127.692L517.331 129.064V50.5753H527.564L528.303 57.749C530.413 54.9358 532.839 52.7907 535.582 51.3138C538.395 49.8368 541.384 49.0984 544.549 49.0984ZM541.279 58.171C538.817 58.171 536.567 58.9094 534.527 60.3864C532.488 61.8633 530.694 63.7974 529.147 66.1886V92.246C531.89 96.3955 535.547 98.4702 540.118 98.4702C544.198 98.4702 547.257 96.8526 549.297 93.6174C551.336 90.3823 552.356 85.3185 552.356 78.4261C552.356 71.3227 551.442 66.1886 549.613 63.0238C547.784 59.7886 545.006 58.171 541.279 58.171Z" fill="white"/>
<path d="M615.823 49.2038C618.707 49.2038 621.52 49.661 624.263 50.5753L622.258 71.1469H613.819V59.7534C609.95 59.8237 606.574 61.371 603.691 64.3952C600.878 67.4194 598.627 71.6744 596.939 77.1602V97.8373H608.122V106.277H576.895V97.8373H585.124V59.0149H576.895V50.5753H594.091L596.201 63.4457C598.381 58.6633 601.018 55.1116 604.113 52.7907C607.278 50.3995 611.181 49.2038 615.823 49.2038Z" fill="white"/>
<path d="M657.663 23.252C659.914 23.252 661.743 23.9904 663.149 25.4674C664.626 26.874 665.365 28.6322 665.365 30.7421C665.365 32.852 664.626 34.6103 663.149 36.0169C661.743 37.4235 659.914 38.1268 657.663 38.1268C655.343 38.1268 653.479 37.4235 652.072 36.0169C650.666 34.6103 649.962 32.852 649.962 30.7421C649.962 28.5619 650.666 26.7685 652.072 25.3619C653.549 23.9553 655.413 23.252 657.663 23.252ZM665.787 97.6263H680.978V106.277H637.408V97.6263H653.971V59.2259H637.936V50.5753H665.787V97.6263Z" fill="white"/>
<path d="M694.44 50.5753H704.673L705.517 57.8545C707.838 55.0413 710.546 52.8962 713.64 51.4193C716.805 49.872 720.111 49.0984 723.557 49.0984C728.691 49.0984 732.559 50.5401 735.161 53.4237C737.764 56.3072 739.065 60.3864 739.065 65.6611V106.277H727.249V71.5689C727.249 68.1227 727.038 65.4853 726.616 63.6567C726.265 61.7578 725.526 60.3864 724.401 59.5424C723.276 58.6281 721.588 58.171 719.337 58.171C716.805 58.171 714.379 58.9446 712.058 60.4919C709.807 62.0391 707.873 63.9732 706.256 66.2941V106.277H694.44V50.5753Z" fill="white"/>
<path d="M800 103.323C797.89 104.659 795.429 105.714 792.615 106.488C789.802 107.262 786.848 107.648 783.754 107.648C777.424 107.648 772.536 106.031 769.09 102.796C765.644 99.49 763.92 95.0241 763.92 89.3976V59.2259H751.578V50.5753H763.92V38.1268L775.736 36.7554V50.5753H794.62L793.248 59.2259H775.736V89.2921C775.736 92.3163 776.51 94.5669 778.057 96.0439C779.604 97.4505 782.066 98.1538 785.442 98.1538C789.169 98.1538 792.615 97.2746 795.78 95.5164L800 103.323Z" fill="white"/>
<rect x="828.5" y="17.9565" width="195" height="117" rx="58.5" stroke="white" stroke-width="7"/>
<path d="M913.579 43.765V84.22C913.579 87.46 913.099 90.49 912.139 93.31C911.179 96.13 909.709 98.575 907.729 100.645C905.779 102.715 903.319 104.335 900.349 105.505C897.379 106.675 893.884 107.26 889.864 107.26C886.204 107.26 882.904 106.75 879.964 105.73C877.054 104.71 874.294 103.285 871.684 101.455L876.544 93.76C878.854 95.29 880.999 96.355 882.979 96.955C884.989 97.525 887.074 97.81 889.234 97.81C892.834 97.81 895.744 96.67 897.964 94.39C900.184 92.08 901.294 88.675 901.294 84.175V53.035H882.394V43.765H913.579ZM971.189 88.135C971.189 91.915 970.214 95.245 968.264 98.125C966.344 101.005 963.569 103.27 959.939 104.92C956.309 106.54 951.914 107.35 946.754 107.35C941.354 107.35 936.719 106.555 932.849 104.965C928.979 103.345 925.739 101.275 923.129 98.755L929.609 91.51C931.859 93.52 934.379 95.095 937.169 96.235C939.959 97.375 943.094 97.945 946.574 97.945C948.794 97.945 950.789 97.6 952.559 96.91C954.359 96.22 955.769 95.215 956.789 93.895C957.839 92.545 958.364 90.895 958.364 88.945C958.364 87.235 958.004 85.795 957.284 84.625C956.564 83.455 955.319 82.405 953.549 81.475C951.809 80.545 949.379 79.615 946.259 78.685C941.669 77.275 937.889 75.73 934.919 74.05C931.949 72.34 929.744 70.33 928.304 68.02C926.864 65.68 926.144 62.92 926.144 59.74C926.144 56.17 927.134 53.095 929.114 50.515C931.094 47.905 933.764 45.91 937.124 44.53C940.514 43.12 944.294 42.415 948.464 42.415C953.084 42.415 957.149 43.09 960.659 44.44C964.169 45.76 967.259 47.65 969.929 50.11L963.764 57.085C961.634 55.255 959.324 53.905 956.834 53.035C954.374 52.165 951.869 51.73 949.319 51.73C947.309 51.73 945.509 52 943.919 52.54C942.359 53.08 941.129 53.875 940.229 54.925C939.329 55.975 938.879 57.31 938.879 58.93C938.879 60.4 939.284 61.66 940.094 62.71C940.934 63.73 942.359 64.69 944.369 65.59C946.379 66.46 949.139 67.45 952.649 68.56C956.339 69.67 959.564 71.005 962.324 72.565C965.114 74.125 967.289 76.15 968.849 78.64C970.409 81.1 971.189 84.265 971.189 88.135Z" fill="white"/>
</svg>
