<svg width="1026" height="141" viewBox="0 0 1026 141" fill="none" xmlns="http://www.w3.org/2000/svg">
<path fill-rule="evenodd" clip-rule="evenodd" d="M22.1605 10.776C34.7792 4.3897 50.3173 0 67.027 0C82.883 0 98.9643 4.18895 111.623 10.5956C113.859 11.727 114.754 14.4566 113.622 16.6923C112.491 18.928 109.761 19.8231 107.526 18.6916C96.084 12.901 81.4011 9.07387 67.027 9.07387C51.883 9.07387 37.7397 13.0612 26.2579 18.8721C24.0222 20.0036 21.2926 19.1085 20.1612 16.8728C19.0297 14.6371 19.9248 11.9075 22.1605 10.776ZM30.0506 24.6097C41.0022 19.4975 55.0693 16.7843 66.9749 16.7843C78.8995 16.7843 92.6162 19.5046 103.553 24.6097C115.73 30.2939 125.931 38.5504 132.928 48.2684C134.392 50.3018 133.931 53.1371 131.897 54.6012C129.864 56.0653 127.029 55.6037 125.564 53.5703C119.567 45.2406 110.638 37.9311 99.7144 32.8318C90.1075 28.3473 77.7217 25.8582 66.9749 25.8582C56.2093 25.8582 43.4805 28.3544 33.8887 32.8318C23.4361 37.7111 14.0692 45.5616 8.22902 53.737C6.77252 55.7759 3.93896 56.248 1.90007 54.7915C-0.138815 53.335 -0.610937 50.5015 0.845557 48.4626C7.63875 38.9531 18.2536 30.1165 30.0506 24.6097ZM66.397 33.2078C89.7656 32.9831 110.157 45.0169 120.506 62.3053C125.938 71.3796 127.828 80.5019 127.828 88.2779C127.828 101.52 115.737 109.78 104.882 109.78C99.4452 109.78 93.6695 108.325 89.0917 104.835C84.3746 101.238 81.2573 95.7116 81.0362 88.4153C80.9038 84.0459 78.9053 81.1525 76.1626 79.2145C73.269 77.1699 69.5248 76.211 66.4406 76.211C58.0504 76.211 52.208 82.3839 52.208 88.2779C52.208 93.1922 53.7509 100.092 55.7858 104.66C57.8482 109.289 61.5479 114.678 65.1534 117.941L65.1965 117.98L65.2386 118.02C71.1412 123.643 78.5218 128.652 89.3453 131.117C91.7884 131.674 93.3179 134.105 92.7614 136.548C92.205 138.992 89.7733 140.521 87.3302 139.965C74.5985 137.065 65.8206 131.097 59.021 124.629C54.3494 120.386 49.9793 113.923 47.4973 108.352C44.9801 102.702 43.1342 94.549 43.1342 88.2779C43.1342 76.4851 53.9751 67.1371 66.4406 67.1371C71.1169 67.1371 76.7575 68.5244 81.3988 71.8039C86.1909 75.1899 89.8774 80.5984 90.1059 88.1405C90.2458 92.7556 92.0916 95.7115 94.5936 97.6193C97.2348 99.6332 100.934 100.706 104.882 100.706C112.087 100.706 118.754 95.2488 118.754 88.2779C118.754 81.9767 117.227 74.4952 112.72 66.9657C104.072 52.5177 86.7209 42.0867 66.4842 42.2813C48.9242 42.4501 30.2513 50.7432 20.7082 66.7756C16.6405 73.6094 14.5999 81.4189 14.8474 89.5843C15.1879 100.822 16.8261 105.538 19.7905 113.385C20.676 115.729 19.4937 118.347 17.1497 119.233C14.8057 120.118 12.1877 118.936 11.3022 116.592C8.13035 108.196 6.15905 102.445 5.77767 89.8591C5.47821 79.9769 7.95505 70.4606 12.9111 62.1345C24.4236 42.7935 46.418 33.3999 66.397 33.2078ZM24.5451 87.5135C24.5723 66.596 44.7023 50.1724 66.4406 50.1724C88.0587 50.1724 109.058 65.0584 109.058 88.8193C109.058 91.325 107.027 93.3562 104.521 93.3562C102.015 93.3562 99.9842 91.325 99.9842 88.8193C99.9842 71.4316 84.5273 59.2462 66.4406 59.2462C48.4889 59.2462 33.619 72.7595 33.619 87.556V87.5975L33.6182 87.639C33.4671 95.8965 34.7817 103.775 39.0797 112.206C43.4651 120.808 48.737 126.651 53.5565 130.894C55.4373 132.549 55.6198 135.416 53.9642 137.297C52.3086 139.178 49.4417 139.36 47.5609 137.705C42.052 132.855 35.9952 126.134 30.9958 116.327C25.9163 106.363 24.3768 96.9767 24.5451 87.5135ZM66.4406 83.7409C68.9463 83.7409 70.9775 85.7722 70.9775 88.2779C70.9775 93.1775 72.3215 97.8201 74.8812 102.251C77.3442 106.516 80.549 109.591 84.9459 112.257C91.3453 115.748 95.7381 116.94 102.42 116.77L102.451 116.769L102.482 116.768C105.121 116.737 108.217 116.519 110.659 116.093C113.128 115.663 115.478 117.315 115.908 119.783C116.339 122.252 114.687 124.602 112.218 125.032C109.162 125.565 105.568 125.805 102.621 125.841C94.0942 126.055 88.1282 124.341 80.5057 120.171L80.4221 120.125L80.3405 120.076C74.7916 116.729 70.3792 112.599 67.0239 106.79C63.7501 101.122 61.9037 94.9287 61.9037 88.2779C61.9037 85.7722 63.9349 83.7409 66.4406 83.7409Z" fill="#F04405"/>
<path d="M179.36 65.9775H206.789V75.2611H179.36V106.277H167.122V33.4849H211.852L210.587 42.7685H179.36V65.9775Z" fill="#ffffff"/>
<path d="M244.409 23.2518C246.66 23.2518 248.489 23.9903 249.895 25.4672C251.372 26.8738 252.111 28.6321 252.111 30.742C252.111 32.8519 251.372 34.6102 249.895 36.0168C248.489 37.4234 246.66 38.1267 244.409 38.1267C242.089 38.1267 240.225 37.4234 238.818 36.0168C237.412 34.6102 236.708 32.8519 236.708 30.742C236.708 28.5618 237.412 26.7684 238.818 25.3617C240.295 23.9551 242.159 23.2518 244.409 23.2518ZM252.533 97.6262H267.724V106.277H224.154V97.6262H240.717V59.2258H224.682V50.5752H252.533V97.6262Z" fill="#ffffff"/>
<path d="M281.186 50.5752H291.419L292.263 57.8544C294.584 55.0411 297.292 52.8961 300.386 51.4191C303.551 49.8719 306.857 49.0982 310.303 49.0982C315.437 49.0982 319.305 50.54 321.907 53.4235C324.51 56.3071 325.811 60.3862 325.811 65.661V106.277H313.995V71.5688C313.995 68.1226 313.784 65.4852 313.362 63.6566C313.011 61.7577 312.272 60.3862 311.147 59.5423C310.022 58.628 308.334 58.1708 306.083 58.1708C303.551 58.1708 301.125 58.9445 298.804 60.4917C296.553 62.039 294.619 63.9731 293.002 66.294V106.277H281.186V50.5752Z" fill="#ffffff"/>
<path d="M390.227 53.318C388.188 54.0214 385.867 54.5137 383.265 54.795C380.733 55.006 377.673 55.1115 374.086 55.1115C377.462 56.6587 379.994 58.5928 381.682 60.9137C383.37 63.2346 384.214 66.0478 384.214 69.3534C384.214 73.0105 383.3 76.2457 381.471 79.059C379.713 81.8722 377.181 84.0876 373.875 85.7052C370.57 87.3228 366.667 88.1316 362.165 88.1316C359.001 88.1316 356.469 87.8151 354.57 87.1821C353.796 87.7447 353.198 88.448 352.776 89.292C352.354 90.0656 352.143 90.9096 352.143 91.8239C352.143 94.6371 354.429 96.0437 359.001 96.0437H368.706C372.645 96.0437 376.161 96.7119 379.256 98.0481C382.35 99.3844 384.741 101.248 386.429 103.639C388.188 105.96 389.067 108.598 389.067 111.552C389.067 117.108 386.676 121.398 381.893 124.422C377.111 127.517 370.218 129.064 361.216 129.064C354.957 129.064 349.998 128.396 346.341 127.059C342.754 125.793 340.187 123.895 338.64 121.363C337.163 118.901 336.425 115.701 336.425 111.763H346.974C346.974 113.872 347.361 115.525 348.135 116.721C348.979 117.987 350.42 118.901 352.46 119.464C354.499 120.097 357.453 120.413 361.321 120.413C366.948 120.413 370.992 119.71 373.453 118.303C375.915 116.967 377.146 114.963 377.146 112.29C377.146 110.039 376.161 108.281 374.192 107.015C372.293 105.82 369.691 105.222 366.385 105.222H356.785C351.792 105.222 347.994 104.202 345.392 102.162C342.86 100.123 341.594 97.5558 341.594 94.4613C341.594 92.5624 342.121 90.7338 343.176 88.9755C344.231 87.2173 345.743 85.7052 347.713 84.4392C344.407 82.681 341.981 80.5711 340.433 78.1095C338.956 75.5776 338.218 72.4831 338.218 68.8259C338.218 64.9577 339.203 61.5467 341.172 58.5928C343.141 55.5686 345.884 53.2477 349.4 51.6301C352.917 49.9422 356.926 49.0982 361.427 49.0982C367.475 49.1686 372.258 48.7466 375.774 47.8323C379.361 46.918 383.159 45.4762 387.168 43.507L390.227 53.318ZM361.532 57.3269C357.805 57.3269 354.992 58.3818 353.093 60.4917C351.194 62.5313 350.244 65.3094 350.244 68.8259C350.244 72.4127 351.194 75.2611 353.093 77.371C355.062 79.4106 357.91 80.4304 361.638 80.4304C365.154 80.4304 367.827 79.4106 369.656 77.371C371.484 75.3314 372.398 72.4127 372.398 68.6149C372.398 61.0896 368.776 57.3269 361.532 57.3269Z" fill="#ffffff"/>
<path d="M409.07 82.2238C409.421 87.6392 410.969 91.7184 413.712 94.4613C416.525 97.1338 420.041 98.4701 424.261 98.4701C426.863 98.4701 429.325 98.0833 431.646 97.3097C434.037 96.4657 436.463 95.2349 438.925 93.6173L443.989 100.791C441.387 102.971 438.327 104.659 434.811 105.855C431.294 107.05 427.602 107.648 423.734 107.648C415.224 107.648 408.613 105.011 403.9 99.7361C399.188 94.391 396.832 87.2876 396.832 78.426C396.832 72.8699 397.852 67.8764 399.892 63.4456C401.931 58.9445 404.885 55.428 408.753 52.8961C412.621 50.3642 417.123 49.0982 422.257 49.0982C429.641 49.0982 435.479 51.595 439.769 56.5884C444.129 61.5115 446.31 68.2984 446.31 76.949C446.31 79.0589 446.204 80.8172 445.993 82.2238H409.07ZM422.362 57.8544C418.564 57.8544 415.47 59.2258 413.079 61.9687C410.687 64.7116 409.316 68.7907 408.964 74.2062H434.811C434.67 68.9314 433.545 64.8874 431.435 62.0742C429.325 59.261 426.301 57.8544 422.362 57.8544Z" fill="#ffffff"/>
<path d="M497.75 49.2037C500.634 49.2037 503.447 49.6609 506.19 50.5752L504.185 71.1468H495.746V59.7533C491.878 59.8236 488.502 61.3709 485.618 64.3951C482.805 67.4193 480.554 71.6743 478.867 77.16V97.8372H490.049V106.277H458.822V97.8372H467.051V59.0148H458.822V50.5752H476.018L478.128 63.4456C480.308 58.6632 482.946 55.1115 486.04 52.7906C489.205 50.3993 493.108 49.2037 497.75 49.2037Z" fill="#ffffff"/>
<path d="M544.549 49.0982C558.052 49.0982 564.804 58.839 564.804 78.3205C564.804 87.1118 562.94 94.2151 559.213 99.6306C555.485 104.976 550.175 107.648 543.283 107.648C537.446 107.648 532.734 105.609 529.147 101.529V127.692L517.331 129.064V50.5752H527.564L528.303 57.7489C530.413 54.9357 532.839 52.7906 535.582 51.3136C538.395 49.8367 541.384 49.0982 544.549 49.0982ZM541.279 58.1708C538.817 58.1708 536.567 58.9093 534.527 60.3862C532.487 61.8632 530.694 63.7973 529.147 66.1885V92.2459C531.89 96.3954 535.547 98.4701 540.118 98.4701C544.197 98.4701 547.257 96.8525 549.296 93.6173C551.336 90.3821 552.356 85.3184 552.356 78.426C552.356 71.3226 551.441 66.1885 549.613 63.0236C547.784 59.7884 545.006 58.1708 541.279 58.1708Z" fill="#ffffff"/>
<path d="M615.823 49.2037C618.706 49.2037 621.52 49.6609 624.262 50.5752L622.258 71.1468H613.818V59.7533C609.95 59.8236 606.574 61.3709 603.691 64.3951C600.878 67.4193 598.627 71.6743 596.939 77.16V97.8372H608.122V106.277H576.895V97.8372H585.124V59.0148H576.895V50.5752H594.091L596.201 63.4456C598.381 58.6632 601.018 55.1115 604.113 52.7906C607.278 50.3993 611.181 49.2037 615.823 49.2037Z" fill="#ffffff"/>
<path d="M657.663 23.2518C659.914 23.2518 661.742 23.9903 663.149 25.4672C664.626 26.8738 665.364 28.6321 665.364 30.742C665.364 32.8519 664.626 34.6102 663.149 36.0168C661.742 37.4234 659.914 38.1267 657.663 38.1267C655.342 38.1267 653.479 37.4234 652.072 36.0168C650.665 34.6102 649.962 32.8519 649.962 30.742C649.962 28.5618 650.665 26.7684 652.072 25.3617C653.549 23.9551 655.413 23.2518 657.663 23.2518ZM665.786 97.6262H680.978V106.277H637.408V97.6262H653.971V59.2258H637.936V50.5752H665.786V97.6262Z" fill="#ffffff"/>
<path d="M694.44 50.5752H704.673L705.517 57.8544C707.838 55.0411 710.546 52.8961 713.64 51.4191C716.805 49.8719 720.111 49.0982 723.557 49.0982C728.691 49.0982 732.559 50.54 735.161 53.4235C737.764 56.3071 739.065 60.3862 739.065 65.661V106.277H727.249V71.5688C727.249 68.1226 727.038 65.4852 726.616 63.6566C726.264 61.7577 725.526 60.3862 724.401 59.5423C723.275 58.628 721.588 58.1708 719.337 58.1708C716.805 58.1708 714.379 58.9445 712.058 60.4917C709.807 62.039 707.873 63.9731 706.256 66.294V106.277H694.44V50.5752Z" fill="#ffffff"/>
<path d="M800 103.323C797.89 104.659 795.428 105.714 792.615 106.488C789.802 107.261 786.848 107.648 783.754 107.648C777.424 107.648 772.536 106.031 769.09 102.795C765.643 99.4899 763.92 95.0239 763.92 89.3975V59.2258H751.577V50.5752H763.92V38.1267L775.736 36.7553V50.5752H794.62L793.248 59.2258H775.736V89.292C775.736 92.3162 776.509 94.5668 778.057 96.0437C779.604 97.4503 782.066 98.1536 785.441 98.1536C789.169 98.1536 792.615 97.2745 795.78 95.5163L800 103.323Z" fill="#ffffff"/>
<rect x="829" y="17" width="194" height="116" rx="58" stroke="#ffffff" stroke-width="6"/>
<path d="M914.865 39.9086V83.2237C914.865 86.6928 914.351 89.937 913.324 92.9564C912.296 95.9758 910.722 98.5936 908.602 100.81C906.514 103.026 903.88 104.761 900.7 106.014C897.52 107.266 893.778 107.893 889.474 107.893C885.555 107.893 882.022 107.347 878.874 106.254C875.758 105.162 872.803 103.637 870.008 101.677L875.212 93.4382C877.685 95.0764 879.982 96.2167 882.102 96.8591C884.254 97.4694 886.486 97.7745 888.799 97.7745C892.654 97.7745 895.769 96.5539 898.146 94.1128C900.523 91.6394 901.712 87.9937 901.712 83.1755V49.8339H881.476V39.9086H914.865ZM976.548 87.4155C976.548 91.4628 975.504 95.0282 973.416 98.1118C971.361 101.195 968.389 103.621 964.503 105.387C960.616 107.122 955.91 107.989 950.386 107.989C944.604 107.989 939.641 107.138 935.498 105.435C931.354 103.701 927.885 101.485 925.09 98.7864L932.029 91.0291C934.438 93.1812 937.136 94.8676 940.123 96.0882C943.11 97.3088 946.467 97.9191 950.193 97.9191C952.57 97.9191 954.706 97.5497 956.601 96.8109C958.528 96.0721 960.038 94.9961 961.13 93.5828C962.254 92.1373 962.817 90.3707 962.817 88.2828C962.817 86.4519 962.431 84.9101 961.66 83.6574C960.889 82.4046 959.556 81.2804 957.661 80.2847C955.798 79.2889 953.196 78.2932 949.856 77.2974C944.941 75.7877 940.894 74.1335 937.714 72.3347C934.534 70.5038 932.173 68.3517 930.631 65.8784C929.089 63.3729 928.319 60.4178 928.319 57.013C928.319 53.1906 929.379 49.8982 931.499 47.1358C933.619 44.3413 936.477 42.2052 940.075 40.7276C943.705 39.218 947.752 38.4631 952.217 38.4631C957.163 38.4631 961.516 39.1858 965.274 40.6313C969.032 42.0446 972.34 44.0682 975.199 46.7021L968.598 54.1703C966.318 52.2109 963.844 50.7655 961.178 49.8339C958.544 48.9024 955.862 48.4367 953.132 48.4367C950.98 48.4367 949.053 48.7258 947.35 49.3039C945.68 49.8821 944.363 50.7333 943.399 51.8576C942.436 52.9818 941.954 54.4112 941.954 56.1457C941.954 57.7197 942.388 59.0687 943.255 60.193C944.154 61.2851 945.68 62.313 947.832 63.2766C949.984 64.2081 952.939 65.2681 956.697 66.4566C960.648 67.645 964.101 69.0744 967.056 70.7447C970.044 72.415 972.372 74.5832 974.043 77.2492C975.713 79.8831 976.548 83.2719 976.548 87.4155Z" fill="#ffffff"/>
</svg>
