<svg fill="none" height="141" width="801" xmlns="http://www.w3.org/2000/svg"><path clip-rule="evenodd" d="M22.6 10.855C35.219 4.469 50.757.079 67.467.079c15.855 0 31.937 4.189 44.596 10.595a4.538 4.538 0 0 1-4.098 8.097C96.523 12.98 81.84 9.153 67.466 9.153c-15.143 0-29.287 3.987-40.769 9.798a4.537 4.537 0 0 1-4.097-8.096zm7.89 13.834c10.952-5.113 25.019-7.826 36.924-7.826 11.925 0 25.642 2.72 36.578 7.826 12.177 5.684 22.379 13.94 29.376 23.658a4.537 4.537 0 0 1-7.364 5.302c-5.997-8.33-14.926-15.64-25.85-20.738-9.607-4.485-21.993-6.974-32.74-6.974-10.765 0-23.494 2.496-33.086 6.974-10.453 4.879-19.82 12.73-25.66 20.905a4.537 4.537 0 0 1-7.383-5.275c6.793-9.51 17.408-18.346 29.205-23.853zm36.346 8.598c23.37-.225 43.761 11.809 54.109 29.097 5.432 9.074 7.322 18.197 7.322 25.973 0 13.242-12.09 21.501-22.946 21.501-5.436 0-11.212-1.454-15.79-4.944-4.717-3.597-7.834-9.123-8.055-16.42-.133-4.37-2.131-7.263-4.874-9.2-2.894-2.045-6.638-3.004-9.722-3.004-8.39 0-14.232 6.173-14.232 12.067 0 4.914 1.542 11.814 3.577 16.381 2.063 4.629 5.762 10.019 9.368 13.282l.043.039.042.04c5.903 5.623 13.283 10.632 24.107 13.097a4.537 4.537 0 0 1-2.015 8.847c-12.732-2.899-21.51-8.867-28.31-15.335-4.671-4.243-9.041-10.706-11.523-16.277-2.517-5.65-4.363-13.803-4.363-20.074 0-11.793 10.84-21.141 23.306-21.141 4.676 0 10.317 1.387 14.958 4.667 4.792 3.386 8.479 8.794 8.707 16.336.14 4.615 1.986 7.571 4.488 9.48 2.641 2.013 6.341 3.086 10.288 3.086 7.205 0 13.872-5.457 13.872-12.428 0-6.301-1.526-13.783-6.033-21.312-8.649-14.448-26-24.88-46.236-24.685-17.56.169-36.233 8.462-45.776 24.494-4.068 6.834-6.109 14.644-5.861 22.81.34 11.237 1.979 15.953 4.943 23.8a4.536 4.536 0 0 1-2.64 5.847 4.536 4.536 0 0 1-5.848-2.64c-3.172-8.396-5.144-14.148-5.525-26.733-.3-9.882 2.178-19.398 7.134-27.725 11.512-19.34 33.506-28.734 53.485-28.926zM24.985 87.592c.027-20.917 20.157-37.34 41.895-37.34 21.618 0 42.617 14.885 42.617 38.646a4.537 4.537 0 1 1-9.073 0c0-17.387-15.457-29.573-33.544-29.573-17.952 0-32.822 13.513-32.822 28.31v.083c-.151 8.257 1.163 16.136 5.461 24.567 4.386 8.602 9.657 14.445 14.477 18.688A4.537 4.537 0 1 1 48 137.784c-5.509-4.85-11.565-11.572-16.565-21.378-5.08-9.964-6.619-19.35-6.45-28.814zM66.88 83.82a4.537 4.537 0 0 1 4.537 4.537c0 4.9 1.344 9.542 3.904 13.973 2.463 4.264 5.668 7.34 10.064 10.006 6.4 3.49 10.792 4.683 17.474 4.512h.032l.031-.001c2.639-.031 5.734-.249 8.177-.675a4.537 4.537 0 0 1 1.559 8.939c-3.056.533-6.651.773-9.598.809-8.526.213-14.492-1.5-22.115-5.67l-.083-.046-.082-.049c-5.549-3.347-9.961-7.477-13.317-13.286-3.273-5.668-5.12-11.861-5.12-18.512a4.537 4.537 0 0 1 4.537-4.537z" fill="#f04405" fill-rule="evenodd"/><g fill="#0d102b"><path d="M179.799 66.056h27.429v9.284h-27.429v31.016h-12.237V33.564h44.73l-1.266 9.283h-31.227zM244.849 23.33c2.251 0 4.079.74 5.486 2.216 1.477 1.407 2.215 3.165 2.215 5.275s-.738 3.868-2.215 5.275c-1.407 1.406-3.235 2.11-5.486 2.11-2.321 0-4.185-.704-5.591-2.11-1.407-1.407-2.11-3.165-2.11-5.275 0-2.18.703-3.974 2.11-5.38 1.477-1.407 3.34-2.11 5.591-2.11zm8.123 74.375h15.192v8.651h-43.57v-8.651h16.563v-38.4h-16.036v-8.651h27.851zM281.626 50.654h10.233l.844 7.28c2.321-2.814 5.028-4.96 8.123-6.436 3.165-1.547 6.47-2.32 9.916-2.32 5.135 0 9.003 1.44 11.605 4.324s3.903 6.963 3.903 12.238v40.616h-11.815V71.648c0-3.447-.211-6.084-.633-7.912-.352-1.9-1.09-3.27-2.216-4.115-1.125-.914-2.813-1.371-5.063-1.371-2.532 0-4.959.773-7.28 2.32-2.25 1.548-4.184 3.482-5.802 5.803v39.983h-11.815zM390.667 53.397c-2.04.703-4.361 1.196-6.963 1.477-2.532.21-5.591.316-9.178.316 3.376 1.548 5.908 3.482 7.596 5.803s2.532 5.134 2.532 8.44c0 3.656-.915 6.892-2.743 9.705-1.759 2.813-4.29 5.028-7.596 6.646-3.305 1.618-7.209 2.426-11.71 2.426-3.165 0-5.697-.316-7.596-.949a5.767 5.767 0 0 0-1.793 2.11 5.202 5.202 0 0 0-.633 2.532c0 2.813 2.286 4.22 6.857 4.22h9.706c3.938 0 7.455.668 10.549 2.004 3.095 1.336 5.486 3.2 7.174 5.591 1.758 2.321 2.637 4.959 2.637 7.912 0 5.557-2.391 9.847-7.173 12.871-4.783 3.094-11.675 4.642-20.677 4.642-6.26 0-11.218-.668-14.875-2.005-3.587-1.266-6.154-3.165-7.701-5.696-1.477-2.462-2.216-5.662-2.216-9.601h10.55c0 2.11.387 3.763 1.16 4.959.844 1.266 2.286 2.18 4.325 2.743 2.04.633 4.994.949 8.862.949 5.627 0 9.671-.703 12.132-2.11 2.462-1.336 3.692-3.341 3.692-6.013 0-2.251-.984-4.009-2.953-5.275-1.899-1.195-4.502-1.793-7.807-1.793h-9.6c-4.994 0-8.792-1.02-11.394-3.06-2.532-2.039-3.798-4.606-3.798-7.7 0-1.9.528-3.728 1.583-5.487 1.055-1.758 2.567-3.27 4.536-4.536-3.305-1.758-5.732-3.868-7.279-6.33-1.477-2.531-2.215-5.626-2.215-9.283 0-3.868.984-7.28 2.953-10.233 1.97-3.024 4.713-5.345 8.229-6.963 3.517-1.688 7.525-2.532 12.027-2.532 6.048.07 10.83-.352 14.347-1.266 3.587-.914 7.385-2.356 11.393-4.325zm-28.695 4.009c-3.727 0-6.541 1.055-8.44 3.165-1.898 2.04-2.848 4.817-2.848 8.334 0 3.587.95 6.435 2.848 8.545 1.97 2.04 4.818 3.06 8.546 3.06 3.516 0 6.189-1.02 8.017-3.06 1.829-2.04 2.743-4.958 2.743-8.756 0-7.526-3.622-11.288-10.866-11.288zM409.509 82.303c.352 5.415 1.899 9.494 4.642 12.237 2.813 2.673 6.33 4.009 10.55 4.009 2.602 0 5.063-.387 7.384-1.16 2.392-.844 4.818-2.075 7.28-3.693l5.063 7.174c-2.602 2.18-5.661 3.868-9.178 5.064-3.516 1.195-7.209 1.793-11.077 1.793-8.51 0-15.121-2.637-19.833-7.912-4.712-5.345-7.068-12.448-7.068-21.31 0-5.556 1.02-10.55 3.059-14.98 2.04-4.502 4.994-8.018 8.862-10.55s8.369-3.798 13.503-3.798c7.385 0 13.222 2.497 17.513 7.49 4.36 4.923 6.54 11.71 6.54 20.36 0 2.11-.105 3.87-.316 5.276zm13.293-24.37c-3.798 0-6.893 1.372-9.284 4.114-2.391 2.743-3.763 6.823-4.114 12.238h25.846c-.14-5.275-1.266-9.319-3.376-12.132s-5.134-4.22-9.072-4.22zM498.19 49.283c2.883 0 5.697.457 8.44 1.371l-2.005 20.572h-8.44V59.832c-3.868.07-7.244 1.618-10.127 4.642-2.813 3.024-5.064 7.28-6.752 12.765v20.677h11.183v8.44h-31.227v-8.44h8.229V59.094h-8.229v-8.44h17.196l2.11 12.87c2.18-4.782 4.817-8.334 7.912-10.655 3.165-2.39 7.068-3.586 11.71-3.586zM544.989 49.177c13.503 0 20.255 9.74 20.255 29.222 0 8.792-1.864 15.895-5.591 21.31-3.728 5.346-9.038 8.018-15.93 8.018-5.838 0-10.55-2.039-14.137-6.119v26.163l-11.815 1.372V50.654h10.233l.738 7.174c2.11-2.813 4.537-4.959 7.28-6.435a19.016 19.016 0 0 1 8.967-2.216zm-3.271 9.073c-2.461 0-4.712.738-6.751 2.215-2.04 1.477-3.833 3.411-5.381 5.802v26.058c2.743 4.15 6.4 6.224 10.972 6.224 4.079 0 7.138-1.618 9.178-4.853s3.059-8.299 3.059-15.191c0-7.103-.914-12.238-2.743-15.402-1.828-3.236-4.606-4.853-8.334-4.853zM616.262 49.283c2.884 0 5.697.457 8.44 1.371l-2.004 20.572h-8.44V59.832c-3.868.07-7.244 1.618-10.128 4.642-2.813 3.024-5.063 7.28-6.751 12.765v20.677h11.182v8.44h-31.226v-8.44h8.228V59.094h-8.228v-8.44h17.195l2.11 12.87c2.18-4.782 4.818-8.334 7.912-10.655 3.165-2.39 7.069-3.586 11.71-3.586zM658.103 23.33c2.25 0 4.079.74 5.486 2.216 1.477 1.407 2.215 3.165 2.215 5.275s-.738 3.868-2.215 5.275c-1.407 1.406-3.236 2.11-5.486 2.11-2.321 0-4.185-.704-5.591-2.11-1.407-1.407-2.11-3.165-2.11-5.275 0-2.18.703-3.974 2.11-5.38 1.477-1.407 3.34-2.11 5.591-2.11zm8.123 74.375h15.191v8.651h-43.569v-8.651h16.563v-38.4h-16.036v-8.651h27.851zM694.88 50.654h10.233l.844 7.28c2.321-2.814 5.028-4.96 8.123-6.436 3.165-1.547 6.47-2.32 9.916-2.32 5.135 0 9.003 1.44 11.605 4.324s3.903 6.963 3.903 12.238v40.616h-11.815V71.648c0-3.447-.211-6.084-.633-7.912-.352-1.9-1.09-3.27-2.216-4.115-1.125-.914-2.813-1.371-5.063-1.371-2.532 0-4.959.773-7.28 2.32-2.25 1.548-4.184 3.482-5.802 5.803v39.983H694.88zM800.439 103.402c-2.109 1.336-4.571 2.391-7.384 3.165-2.813.773-5.767 1.16-8.862 1.16-6.33 0-11.218-1.618-14.664-4.853-3.446-3.305-5.169-7.771-5.169-13.398V59.305h-12.343v-8.651h12.343V38.206l11.815-1.372v13.82h18.884l-1.371 8.65h-17.513v30.067c0 3.024.774 5.275 2.321 6.752 1.548 1.406 4.009 2.11 7.385 2.11 3.728 0 7.174-.88 10.339-2.638z"/></g></svg>