<svg id="Layer_1" data-name="Layer 1" xmlns="http://www.w3.org/2000/svg" viewBox="0 0 128.33 18">
  <defs>
    <style>.cls-1{fill:#171a31;}.cls-2{fill:#f24405;}</style>
  </defs>
  <path
    class="cls-1"
    d="M25.63,13.5V9.79H28.9V8.2H25.63V5.72h3.7l.22-1.57H23.4V13.5ZM34.21,5a1.25,1.25,0,0,0,.9-.33,1.15,1.15,0,0,0,.36-.87,1.15,1.15,0,0,0-.36-.86,1.21,1.21,0,0,0-.9-.34,1.25,1.25,0,0,0-.91.34,1.14,1.14,0,0,0-.36.86,1.15,1.15,0,0,0,.36.86,1.25,1.25,0,0,0,.91.34Zm3.12,8.52V12H35.49V6.33H31.4V7.79h2V12h-2V13.5Zm4.15,0v-5a2.75,2.75,0,0,1,.63-.61,1.08,1.08,0,0,1,.62-.21.56.56,0,0,1,.54.26,2,2,0,0,1,.15.93V13.5h2.14V8.23A2.27,2.27,0,0,0,45,6.66a1.89,1.89,0,0,0-1.46-.57,2.71,2.71,0,0,0-1.2.26,3.43,3.43,0,0,0-1,.81l-.15-.83H39.34V13.5Zm9,3a5.3,5.3,0,0,0,2.86-.63,2,2,0,0,0,1-1.75A1.74,1.74,0,0,0,54,13.06a2.16,2.16,0,0,0-1-.75A3.54,3.54,0,0,0,51.62,12H50.43a1.21,1.21,0,0,1-.62-.11.38.38,0,0,1-.16-.32.46.46,0,0,1,.06-.23.42.42,0,0,1,.17-.18,3.73,3.73,0,0,0,.84.09A4,4,0,0,0,52.31,11a2.64,2.64,0,0,0,1.07-.86,2.21,2.21,0,0,0,.38-1.24,1.69,1.69,0,0,0-.35-1.1,2.62,2.62,0,0,0-1-.74,5.77,5.77,0,0,0,2.07-.29l-.49-1.57a7.33,7.33,0,0,1-1.54.72,5.85,5.85,0,0,1-1.83.2,4.13,4.13,0,0,0-1.66.32,2.53,2.53,0,0,0-1.14.91,2.49,2.49,0,0,0-.4,1.39,2.21,2.21,0,0,0,.3,1.19,2.3,2.3,0,0,0,1,.86,1.81,1.81,0,0,0-.59.61,1.45,1.45,0,0,0-.21.76,1.2,1.2,0,0,0,.56,1,2.86,2.86,0,0,0,1.66.39h1.13a1.32,1.32,0,0,1,.78.2.65.65,0,0,1,.26.52.69.69,0,0,1-.36.61,2.8,2.8,0,0,1-1.3.21,4.42,4.42,0,0,1-1-.09.91.91,0,0,1-.48-.28,1,1,0,0,1-.13-.53H47a2.45,2.45,0,0,0,.31,1.26,2,2,0,0,0,1.07.77,6.12,6.12,0,0,0,2.09.28Zm.11-6.58a1,1,0,0,1-.79-.32,1.29,1.29,0,0,1-.3-.9,1.26,1.26,0,0,1,.29-.88,1,1,0,0,1,.8-.33c.73,0,1.1.39,1.1,1.18a1.37,1.37,0,0,1-.29.94,1,1,0,0,1-.81.31Zm8.58,3.81a4.61,4.61,0,0,0,1.61-.27,3.64,3.64,0,0,0,1.25-.72l-.85-1.16a3.32,3.32,0,0,1-1.83.6,1.61,1.61,0,0,1-1.73-1.64h4.64a6.51,6.51,0,0,0,0-.77,4.44,4.44,0,0,0-.41-2,2.83,2.83,0,0,0-1.17-1.27A3.41,3.41,0,0,0,59,6.09a3.45,3.45,0,0,0-1.88.5A3.36,3.36,0,0,0,55.88,8a4.57,4.57,0,0,0-.41,2,4.32,4.32,0,0,0,.43,2,3,3,0,0,0,1.26,1.34,4.05,4.05,0,0,0,2,.48Zm1-4.48H57.62A2.35,2.35,0,0,1,58,8,1.12,1.12,0,0,1,59,7.52c.84,0,1.27.57,1.28,1.73Zm8.34,4.25V12.07H67.17V10a3.94,3.94,0,0,1,.71-1.37A1.85,1.85,0,0,1,68.94,8V9.33h1.35l.39-3a3,3,0,0,0-1.19-.21A2.37,2.37,0,0,0,68,6.57a3.27,3.27,0,0,0-1,1.37l-.38-1.61H64.09V7.75h1v4.32h-1V13.5Zm3.66,3,2.13-.23V13a2.2,2.2,0,0,0,1.7.74,2.31,2.31,0,0,0,1.48-.49,3.18,3.18,0,0,0,1-1.36,5.63,5.63,0,0,0,.33-2,5.17,5.17,0,0,0-.64-2.82,2.18,2.18,0,0,0-2-1,2.52,2.52,0,0,0-1,.25,2.87,2.87,0,0,0-.93.79l-.1-.8H72.25Zm3.19-4.34a1.11,1.11,0,0,1-.58-.15,1.81,1.81,0,0,1-.48-.48v-3a1.43,1.43,0,0,1,1.18-.83.87.87,0,0,1,.81.49,4,4,0,0,1,.27,1.76,3.51,3.51,0,0,1-.31,1.71,1,1,0,0,1-.9.53ZM85,13.5V12.07H83.62V10a3.79,3.79,0,0,1,.72-1.37,1.8,1.8,0,0,1,1-.65V9.33h1.35l.39-3a3,3,0,0,0-1.19-.21,2.32,2.32,0,0,0-1.45.45,3.2,3.2,0,0,0-1,1.37l-.38-1.61H80.54V7.75h.95v4.32h-.95V13.5ZM91.79,5a1.26,1.26,0,0,0,.91-.33,1.18,1.18,0,0,0,.35-.87,1.18,1.18,0,0,0-.35-.86,1.22,1.22,0,0,0-.91-.34,1.27,1.27,0,0,0-.91.34,1.22,1.22,0,0,0-.36.86,1.19,1.19,0,0,0,.36.86,1.27,1.27,0,0,0,.91.34Zm3.13,8.52V12H93.08V6.33H89V7.79h2V12h-2V13.5Zm4.14,0v-5a3.21,3.21,0,0,1,.63-.61,1.1,1.1,0,0,1,.63-.21.56.56,0,0,1,.54.26,2,2,0,0,1,.15.93V13.5h2.13V8.23a2.22,2.22,0,0,0-.52-1.57,1.87,1.87,0,0,0-1.45-.57,2.79,2.79,0,0,0-1.21.26,3.7,3.7,0,0,0-1,.81l-.15-.83H96.93V13.5Zm10.2.23a4.3,4.3,0,0,0,2.35-.65l-.7-1.36a2.65,2.65,0,0,1-1.26.32,1.12,1.12,0,0,1-.78-.23,1,1,0,0,1-.24-.75V7.81h2.09l.21-1.48h-2.3V4.52l-2.14.26V6.33H105V7.81h1.5v3.25a2.67,2.67,0,0,0,.7,2,2.77,2.77,0,0,0,2.07.7Zm6.53,0a3.82,3.82,0,0,0,2.77-1,3.43,3.43,0,0,0,1-2.6v-6h-5.07V5.77h2.86v4.38a2,2,0,0,1-.47,1.43,1.59,1.59,0,0,1-1.2.47,3.14,3.14,0,0,1-1-.13,3.7,3.7,0,0,1-.91-.46L113,12.82a4.86,4.86,0,0,0,1.3.67,4.94,4.94,0,0,0,1.52.21Zm8.73,0a5.06,5.06,0,0,0,2-.37,3,3,0,0,0,1.32-1,2.74,2.74,0,0,0,.45-1.55,2.56,2.56,0,0,0-.69-1.9,5.23,5.23,0,0,0-2.13-1.11,10,10,0,0,1-1.17-.42,1.4,1.4,0,0,1-.56-.38.71.71,0,0,1-.17-.5.76.76,0,0,1,.37-.68,1.88,1.88,0,0,1,1-.23,3.35,3.35,0,0,1,2.15.78l1-1.2a5.13,5.13,0,0,0-5.13-.89,2.85,2.85,0,0,0-1.27.94,2.38,2.38,0,0,0-.47,1.46A2.33,2.33,0,0,0,122,8.37a5.75,5.75,0,0,0,2.34,1.17,4.35,4.35,0,0,1,1.33.59,1,1,0,0,1,.35.8,1,1,0,0,1-.42.85,1.91,1.91,0,0,1-1.13.3,3.67,3.67,0,0,1-2.52-.94l-1.12,1.24a5,5,0,0,0,3.69,1.35Zm0,0"
  />
  <path
    class="cls-2"
    d="M14.14,2.22a.59.59,0,0,1-.22-.05A11.47,11.47,0,0,0,8.6.9,11.37,11.37,0,0,0,3.29,2.17.5.5,0,0,1,2.64,2a.44.44,0,0,1,.19-.61A12.53,12.53,0,0,1,8.6,0a12.54,12.54,0,0,1,5.76,1.37.42.42,0,0,1,.2.6.48.48,0,0,1-.42.25ZM.48,7A.54.54,0,0,1,.2,6.87a.43.43,0,0,1-.11-.63A9.78,9.78,0,0,1,3.67,3.29a11.64,11.64,0,0,1,9.84,0,9.67,9.67,0,0,1,3.58,2.92.43.43,0,0,1-.11.63.5.5,0,0,1-.67-.11,8.85,8.85,0,0,0-3.24-2.64,10.58,10.58,0,0,0-9,0A9,9,0,0,0,.85,6.76.41.41,0,0,1,.48,7Zm6,10.86a.47.47,0,0,1-.34-.13A9.16,9.16,0,0,1,4.19,15.3a7.62,7.62,0,0,1-1-3.9A5.16,5.16,0,0,1,8.6,6.54,5.16,5.16,0,0,1,14,11.4a.48.48,0,0,1-1,0,4.23,4.23,0,0,0-4.44-4,4.23,4.23,0,0,0-4.45,4A6.74,6.74,0,0,0,5,14.86,8.58,8.58,0,0,0,6.8,17a.45.45,0,0,1,0,.64.56.56,0,0,1-.35.13Zm6.84-1.66a5.34,5.34,0,0,1-3-.81A4.71,4.71,0,0,1,8.06,11.4.46.46,0,0,1,8.54,11,.46.46,0,0,1,9,11.4a3.81,3.81,0,0,0,1.85,3.2,4.39,4.39,0,0,0,2.42.64,8.09,8.09,0,0,0,1-.09.48.48,0,0,1,.56.37.46.46,0,0,1-.39.52,7.47,7.47,0,0,1-1.16.11ZM11.37,18l-.12,0A7.44,7.44,0,0,1,7.7,16.09,6.36,6.36,0,0,1,5.62,11.4a2.81,2.81,0,0,1,3-2.65,2.81,2.81,0,0,1,2.94,2.65,1.87,1.87,0,0,0,2,1.74,1.88,1.88,0,0,0,2-1.74c0-3.4-3.11-6.15-6.92-6.15A7,7,0,0,0,2.25,8.88a5.38,5.38,0,0,0-.57,2.52,8.59,8.59,0,0,0,.64,3.25.42.42,0,0,1-.27.57A.5.5,0,0,1,1.43,15,9.67,9.67,0,0,1,.74,11.4a6.4,6.4,0,0,1,.65-2.92A8,8,0,0,1,8.56,4.34c4.34,0,7.87,3.16,7.87,7.05A2.8,2.8,0,0,1,13.49,14a2.81,2.81,0,0,1-2.94-2.64,1.88,1.88,0,0,0-2-1.75,1.88,1.88,0,0,0-2,1.75,5.51,5.51,0,0,0,1.79,4.06,6.58,6.58,0,0,0,3.12,1.66.44.44,0,0,1,.33.55.47.47,0,0,1-.45.34Zm0,0"
  />
</svg>
