<svg width="181" height="24" xmlns="http://www.w3.org/2000/svg">
  <g fill="none">
    <path
      d="M43.914 18v-4.95h4.356v-2.124h-4.356V7.632h4.932l.288-2.106h-8.19V18h2.97zM55.351 6.642c.492 0 .894-.15 1.206-.45.312-.3.468-.684.468-1.152 0-.456-.156-.837-.468-1.143-.312-.306-.714-.459-1.206-.459s-.897.153-1.215.459a1.522 1.522 0 00-.477 1.143c0 .456.159.837.477 1.143.318.306.723.459 1.215.459zM59.509 18v-1.944H57.06V8.442h-5.454v1.944h2.61v5.67h-2.7V18h7.992zm5.532 0v-6.678c.288-.36.568-.633.838-.819.27-.186.548-.279.837-.279.348 0 .588.114.72.342.131.228.197.642.197 1.242V18h2.845v-7.02c0-.9-.231-1.602-.694-2.106-.462-.504-1.107-.756-1.934-.756-.6 0-1.137.117-1.611.351-.475.234-.928.591-1.36 1.071l-.198-1.098h-2.483V18h2.843zm12.05 3.996c1.667 0 2.936-.279 3.806-.837.87-.558 1.305-1.335 1.305-2.331 0-.528-.15-1.002-.45-1.422-.3-.42-.726-.75-1.278-.99s-1.188-.36-1.908-.36h-1.584c-.42 0-.699-.051-.837-.153a.497.497 0 01-.207-.423c0-.108.027-.213.081-.315a.51.51 0 01.225-.225c.348.072.72.108 1.116.108.804 0 1.512-.138 2.124-.414.612-.276 1.086-.657 1.422-1.143a2.828 2.828 0 00.504-1.647c0-.6-.153-1.092-.459-1.476-.306-.384-.77-.714-1.395-.99 1.212 0 2.13-.126 2.754-.378l-.648-2.088c-.696.42-1.38.735-2.052.945-.672.21-1.488.303-2.448.279-.828 0-1.566.141-2.214.423-.648.282-1.152.687-1.512 1.215-.36.528-.54 1.146-.54 1.854 0 .624.132 1.155.396 1.593.264.438.696.819 1.296 1.143a2.375 2.375 0 00-.783.801 1.982 1.982 0 00-.279 1.017c0 .552.246 1.005.738 1.359.492.354 1.23.531 2.214.531h1.512c.456 0 .801.087 1.035.261a.822.822 0 01.351.693c0 .348-.159.618-.477.81-.318.192-.897.288-1.737.288-.6 0-1.056-.042-1.368-.126-.312-.084-.525-.21-.639-.378-.114-.168-.17-.402-.17-.702h-2.52c0 .672.134 1.23.404 1.674.27.444.744.789 1.422 1.035.678.246 1.611.369 2.8.369zm.143-8.766c-.444 0-.798-.144-1.062-.432-.264-.288-.396-.69-.396-1.206 0-.492.13-.882.387-1.17.258-.288.615-.432 1.071-.432.972 0 1.458.522 1.458 1.566 0 .552-.126.969-.378 1.251-.252.282-.612.423-1.08.423zm11.437 5.076c.78 0 1.494-.117 2.142-.351a5.209 5.209 0 001.674-.963l-1.134-1.548c-.816.528-1.632.792-2.448.792-1.356 0-2.124-.726-2.304-2.178h6.192a8.41 8.41 0 00.054-1.026c0-1.02-.183-1.899-.549-2.637-.366-.738-.885-1.302-1.557-1.692-.672-.39-1.464-.585-2.376-.585-.972 0-1.809.225-2.511.675a4.332 4.332 0 00-1.602 1.836c-.366.774-.549 1.641-.549 2.601 0 1.008.189 1.893.567 2.655a4.124 4.124 0 001.683 1.782c.744.426 1.65.639 2.718.639zm1.404-5.976h-3.51c.06-.78.246-1.359.558-1.737.312-.378.726-.567 1.242-.567 1.116 0 1.686.768 1.71 2.304zM101.188 18v-1.908h-1.89v-2.736c.228-.732.546-1.338.954-1.818.408-.48.876-.768 1.404-.864v1.764h1.8l.522-3.996a4.228 4.228 0 00-1.584-.288c-.768 0-1.416.201-1.944.603-.528.402-.966 1.011-1.314 1.827l-.504-2.142h-3.438v1.89h1.26v5.76h-1.26V18h5.994zm4.885 3.996l2.844-.306v-4.374c.587.66 1.343.99 2.267.99.757 0 1.41-.219 1.963-.657.551-.438.974-1.044 1.268-1.818.294-.774.441-1.653.441-2.637 0-1.62-.281-2.871-.846-3.753-.564-.882-1.446-1.323-2.645-1.323-.468 0-.933.114-1.395.342-.463.228-.88.576-1.251 1.044l-.126-1.062h-2.52v13.554zm4.248-5.778c-.288 0-.543-.069-.766-.207-.222-.138-.434-.351-.639-.639V11.34c.445-.744.966-1.116 1.567-1.116.48 0 .84.219 1.08.657.24.438.36 1.221.36 2.349 0 1.044-.136 1.803-.406 2.277-.27.474-.668.711-1.197.711zM123.124 18v-1.908h-1.89v-2.736c.228-.732.546-1.338.954-1.818.408-.48.876-.768 1.404-.864v1.764h1.8l.522-3.996a4.228 4.228 0 00-1.584-.288c-.768 0-1.416.201-1.944.603-.528.402-.966 1.011-1.314 1.827l-.504-2.142h-3.438v1.89h1.26v5.76h-1.26V18h5.994zm9.007-11.358c.492 0 .894-.15 1.206-.45.312-.3.468-.684.468-1.152 0-.456-.156-.837-.468-1.143-.312-.306-.714-.459-1.206-.459s-.897.153-1.215.459a1.522 1.522 0 00-.477 1.143c0 .456.159.837.477 1.143.318.306.723.459 1.215.459zM136.29 18v-1.944h-2.448V8.442h-5.454v1.944h2.61v5.67h-2.7V18h7.992zm5.533 0v-6.678c.288-.36.567-.633.837-.819.27-.186.549-.279.837-.279.348 0 .588.114.72.342.132.228.198.642.198 1.242V18h2.844v-7.02c0-.9-.231-1.602-.693-2.106-.462-.504-1.107-.756-1.935-.756-.6 0-1.137.117-1.611.351-.474.234-.927.591-1.36 1.071l-.197-1.098h-2.484V18h2.844zm13.596.306c1.188 0 2.232-.288 3.132-.864l-.935-1.818a3.379 3.379 0 01-1.675.432c-.48 0-.828-.102-1.043-.306-.216-.204-.325-.54-.325-1.008v-4.338h2.79l.288-1.962h-3.078V6.03l-2.844.342v2.07h-1.998v1.962h1.999v4.338c0 1.128.309 2.004.927 2.628.617.624 1.538.936 2.762.936zm8.701-.036c1.584 0 2.817-.426 3.7-1.278.881-.852 1.322-2.01 1.322-3.474V5.526h-6.768v2.16h3.816v5.85c0 .84-.207 1.473-.62 1.899-.415.426-.952.639-1.612.639-.48 0-.906-.06-1.278-.18s-.774-.324-1.206-.612l-1.116 1.818a6.88 6.88 0 001.737.882c.582.192 1.257.288 2.025.288zm11.653.036c1.044 0 1.947-.165 2.709-.495.762-.33 1.347-.795 1.755-1.395.408-.6.612-1.29.612-2.07 0-1.08-.309-1.923-.927-2.529-.618-.606-1.563-1.101-2.835-1.485-.696-.216-1.218-.402-1.566-.558-.348-.156-.597-.324-.747-.504a1.005 1.005 0 01-.225-.666c0-.396.165-.699.495-.909.33-.21.783-.315 1.359-.315a4.426 4.426 0 012.862 1.044l1.386-1.602c-1.14-1.08-2.628-1.62-4.464-1.62-.876 0-1.671.144-2.385.432-.714.288-1.278.708-1.692 1.26-.414.552-.621 1.2-.621 1.944 0 .948.306 1.722.918 2.322.612.6 1.65 1.122 3.114 1.566.864.264 1.455.525 1.773.783.318.258.477.615.477 1.071 0 .48-.189.855-.567 1.125-.378.27-.879.405-1.503.405-1.296 0-2.418-.42-3.366-1.26l-1.494 1.656c1.224 1.2 2.868 1.8 4.932 1.8z"
      fill="#0D102B"
    />
    <path
      d="M18.857 2.964a.62.62 0 01-.293-.072C16.12 1.704 14.007 1.2 11.474 1.2c-2.52 0-4.914.564-7.09 1.692a.669.669 0 01-.867-.24.59.59 0 01.255-.816C6.14.624 8.737 0 11.474 0c2.711 0 5.079.564 7.676 1.824.318.156.433.516.267.804a.628.628 0 01-.56.336zM.641 9.264a.692.692 0 01-.37-.108.577.577 0 01-.152-.84c1.26-1.68 2.864-3 4.773-3.924 3.997-1.944 9.115-1.956 13.125-.012a13.019 13.019 0 014.774 3.9.579.579 0 01-.153.84.66.66 0 01-.891-.144 11.776 11.776 0 00-4.316-3.528c-3.653-1.764-8.325-1.764-11.966.012a11.896 11.896 0 00-4.328 3.552c-.102.168-.293.252-.496.252zm7.956 14.484a.615.615 0 01-.446-.18c-1.107-1.044-1.706-1.716-2.559-3.168-.878-1.476-1.336-3.276-1.336-5.208 0-3.564 3.233-6.468 7.205-6.468s7.205 2.904 7.205 6.468c0 .336-.28.6-.636.6-.357 0-.637-.264-.637-.6 0-2.904-2.66-5.268-5.932-5.268-3.272 0-5.932 2.364-5.932 5.268 0 1.728.407 3.324 1.184 4.62.814 1.38 1.374 1.968 2.355 2.904a.59.59 0 010 .852.722.722 0 01-.471.18zm9.127-2.22c-1.515 0-2.851-.36-3.946-1.068-1.897-1.212-3.03-3.18-3.03-5.268 0-.336.28-.6.637-.6.356 0 .636.264.636.6 0 1.692.917 3.288 2.47 4.272.903.576 1.96.852 3.233.852a8.91 8.91 0 001.324-.12.632.632 0 01.738.492c.064.324-.165.636-.522.696a9.207 9.207 0 01-1.54.144zM15.165 24a.787.787 0 01-.165-.024c-2.024-.528-3.348-1.236-4.736-2.52-1.782-1.668-2.762-3.888-2.762-6.264 0-1.944 1.757-3.528 3.92-3.528 2.165 0 3.922 1.584 3.922 3.528 0 1.284 1.183 2.328 2.647 2.328 1.464 0 2.648-1.044 2.648-2.328 0-4.524-4.137-8.196-9.229-8.196-3.615 0-6.925 1.896-8.414 4.836-.497.972-.752 2.112-.752 3.36 0 .936.09 2.412.853 4.332a.577.577 0 01-.369.768c-.33.12-.7-.048-.814-.348-.624-1.572-.93-3.132-.93-4.752 0-1.44.293-2.748.866-3.888 1.693-3.348 5.448-5.52 9.56-5.52 5.792 0 10.502 4.212 10.502 9.396 0 1.944-1.757 3.528-3.92 3.528-2.165 0-3.921-1.584-3.921-3.528 0-1.284-1.184-2.328-2.648-2.328-1.464 0-2.648 1.044-2.648 2.328 0 2.052.84 3.972 2.38 5.412 1.21 1.128 2.368 1.752 4.163 2.22.344.084.535.42.446.732-.064.276-.331.456-.599.456z"
      fill="#F04405"
    />
  </g>
</svg>
