<svg width="1027" height="141" viewBox="0 0 1027 141" fill="none" xmlns="http://www.w3.org/2000/svg">
<path fill-rule="evenodd" clip-rule="evenodd" d="M22.1605 10.8549C34.7792 4.46856 50.3173 0.0788574 67.027 0.0788574C82.883 0.0788574 98.9643 4.26781 111.623 10.6744C113.859 11.8059 114.754 14.5355 113.622 16.7712C112.491 19.0068 109.761 19.902 107.526 18.7705C96.084 12.9798 81.4011 9.15273 67.027 9.15273C51.883 9.15273 37.7397 13.14 26.2579 18.951C24.0222 20.0824 21.2926 19.1873 20.1612 16.9516C19.0297 14.716 19.9248 11.9864 22.1605 10.8549ZM30.0506 24.6885C41.0022 19.5763 55.0693 16.8631 66.9749 16.8631C78.8995 16.8631 92.6162 19.5834 103.553 24.6885C115.73 30.3728 125.931 38.6292 132.928 48.3472C134.392 50.3807 133.931 53.216 131.897 54.68C129.864 56.1441 127.029 55.6826 125.564 53.6491C119.567 45.3195 110.638 38.0099 99.7144 32.9107C90.1075 28.4262 77.7217 25.937 66.9749 25.937C56.2093 25.937 43.4805 28.4333 33.8887 32.9107C23.4361 37.79 14.0692 45.6405 8.22902 53.8159C6.77252 55.8547 3.93896 56.3269 1.90007 54.8704C-0.138815 53.4139 -0.610937 50.5803 0.845557 48.5414C7.63875 39.0319 18.2536 30.1954 30.0506 24.6885ZM66.397 33.2867C89.7656 33.062 110.157 45.0957 120.506 62.3842C125.938 71.4584 127.828 80.5808 127.828 88.3567C127.828 101.599 115.737 109.858 104.882 109.858C99.4452 109.858 93.6695 108.404 89.0917 104.914C84.3746 101.317 81.2573 95.7905 81.0362 88.4942C80.9038 84.1248 78.9053 81.2313 76.1626 79.2933C73.269 77.2488 69.5248 76.2899 66.4406 76.2899C58.0504 76.2899 52.208 82.4628 52.208 88.3567C52.208 93.2711 53.7509 100.171 55.7858 104.738C57.8482 109.367 61.5479 114.757 65.1534 118.02L65.1965 118.059L65.2386 118.099C71.1412 123.722 78.5218 128.731 89.3453 131.196C91.7884 131.753 93.3179 134.184 92.7614 136.627C92.205 139.07 89.7733 140.6 87.3302 140.043C74.5985 137.144 65.8206 131.176 59.021 124.708C54.3494 120.465 49.9793 114.002 47.4973 108.431C44.9801 102.781 43.1342 94.6279 43.1342 88.3567C43.1342 76.564 53.9751 67.216 66.4406 67.216C71.1169 67.216 76.7575 68.6032 81.3988 71.8827C86.1909 75.2688 89.8774 80.6773 90.1059 88.2193C90.2458 92.8344 92.0916 95.7904 94.5936 97.6981C97.2348 99.7121 100.934 100.785 104.882 100.785C112.087 100.785 118.754 95.3276 118.754 88.3567C118.754 82.0555 117.227 74.5741 112.72 67.0445C104.072 52.5966 86.7209 42.1655 66.4842 42.3601C48.9242 42.529 30.2513 50.8221 20.7082 66.8544C16.6405 73.6883 14.5999 81.4977 14.8474 89.6631C15.1879 100.901 16.8261 105.617 19.7905 113.464C20.676 115.808 19.4937 118.426 17.1497 119.311C14.8057 120.197 12.1877 119.015 11.3022 116.671C8.13035 108.275 6.15905 102.523 5.77767 89.938C5.47821 80.0557 7.95505 70.5395 12.9111 62.2133C24.4236 42.8723 46.418 33.4788 66.397 33.2867ZM24.5451 87.5924C24.5723 66.6748 44.7023 50.2512 66.4406 50.2512C88.0587 50.2512 109.058 65.1373 109.058 88.8982C109.058 91.4038 107.027 93.4351 104.521 93.4351C102.015 93.4351 99.9842 91.4038 99.9842 88.8982C99.9842 71.5105 84.5273 59.3251 66.4406 59.3251C48.4889 59.3251 33.619 72.8383 33.619 87.6348V87.6763L33.6182 87.7178C33.4671 95.9754 34.7817 103.854 39.0797 112.285C43.4651 120.887 48.737 126.73 53.5565 130.973C55.4373 132.628 55.6198 135.495 53.9642 137.376C52.3086 139.257 49.4417 139.439 47.5609 137.784C42.052 132.934 35.9952 126.212 30.9958 116.406C25.9163 106.442 24.3768 97.0555 24.5451 87.5924ZM66.4406 83.8198C68.9463 83.8198 70.9775 85.8511 70.9775 88.3567C70.9775 93.2564 72.3215 97.899 74.8812 102.33C77.3442 106.594 80.549 109.67 84.9459 112.336C91.3453 115.826 95.7381 117.019 102.42 116.848L102.451 116.848L102.482 116.847C105.121 116.816 108.217 116.598 110.659 116.172C113.128 115.741 115.478 117.394 115.908 119.862C116.339 122.33 114.687 124.68 112.218 125.111C109.162 125.644 105.568 125.884 102.621 125.92C94.0942 126.133 88.1282 124.42 80.5057 120.25L80.4221 120.204L80.3405 120.155C74.7916 116.808 70.3792 112.678 67.0239 106.869C63.7501 101.201 61.9037 95.0076 61.9037 88.3567C61.9037 85.8511 63.9349 83.8198 66.4406 83.8198Z" fill="#F04405"/>
<path d="M179.36 66.0565H206.789V75.3401H179.36V106.356H167.123V33.5639H211.853L210.587 42.8475H179.36V66.0565Z" fill="#0D102B"/>
<path d="M244.41 23.3308C246.66 23.3308 248.489 24.0693 249.895 25.5462C251.372 26.9528 252.111 28.7111 252.111 30.821C252.111 32.9309 251.372 34.6892 249.895 36.0958C248.489 37.5024 246.66 38.2057 244.41 38.2057C242.089 38.2057 240.225 37.5024 238.818 36.0958C237.412 34.6892 236.708 32.9309 236.708 30.821C236.708 28.6408 237.412 26.8473 238.818 25.4407C240.295 24.0341 242.159 23.3308 244.41 23.3308ZM252.533 97.7051H267.724V106.356H224.154V97.7051H240.717V59.3048H224.682V50.6542H252.533V97.7051Z" fill="#0D102B"/>
<path d="M281.186 50.6542H291.419L292.263 57.9333C294.584 55.1201 297.292 52.975 300.386 51.4981C303.551 49.9508 306.857 49.1772 310.303 49.1772C315.437 49.1772 319.305 50.619 321.908 53.5025C324.51 56.3861 325.811 60.4652 325.811 65.74V106.356H313.995V71.6478C313.995 68.2016 313.784 65.5642 313.362 63.7356C313.011 61.8367 312.272 60.4652 311.147 59.6213C310.022 58.707 308.334 58.2498 306.083 58.2498C303.551 58.2498 301.125 59.0235 298.804 60.5707C296.553 62.118 294.619 64.0521 293.002 66.373V106.356H281.186V50.6542Z" fill="#0D102B"/>
<path d="M390.227 53.397C388.188 54.1003 385.867 54.5926 383.265 54.874C380.733 55.085 377.673 55.1905 374.087 55.1905C377.462 56.7377 379.994 58.6718 381.682 60.9927C383.37 63.3136 384.214 66.1268 384.214 69.4323C384.214 73.0895 383.3 76.3247 381.471 79.1379C379.713 81.9511 377.181 84.1665 373.876 85.7841C370.57 87.4017 366.667 88.2105 362.166 88.2105C359.001 88.2105 356.469 87.8941 354.57 87.2611C353.796 87.8237 353.198 88.527 352.776 89.371C352.355 90.1446 352.144 90.9886 352.144 91.9029C352.144 94.7161 354.429 96.1227 359.001 96.1227H368.706C372.645 96.1227 376.161 96.7908 379.256 98.1271C382.35 99.4634 384.742 101.327 386.43 103.718C388.188 106.039 389.067 108.677 389.067 111.631C389.067 117.187 386.676 121.477 381.893 124.501C377.111 127.596 370.218 129.143 361.216 129.143C354.957 129.143 349.998 128.475 346.341 127.138C342.754 125.872 340.187 123.974 338.64 121.442C337.163 118.98 336.425 115.78 336.425 111.842H346.974C346.974 113.951 347.361 115.604 348.135 116.8C348.979 118.066 350.42 118.98 352.46 119.543C354.5 120.176 357.453 120.492 361.322 120.492C366.948 120.492 370.992 119.789 373.454 118.382C375.915 117.046 377.146 115.042 377.146 112.369C377.146 110.118 376.161 108.36 374.192 107.094C372.293 105.899 369.691 105.301 366.385 105.301H356.785C351.792 105.301 347.994 104.281 345.392 102.241C342.86 100.202 341.594 97.6348 341.594 94.5403C341.594 92.6414 342.121 90.8128 343.176 89.0545C344.231 87.2962 345.743 85.7841 347.713 84.5182C344.407 82.7599 341.981 80.65 340.434 78.1885C338.957 75.6566 338.218 72.562 338.218 68.9049C338.218 65.0367 339.203 61.6257 341.172 58.6718C343.141 55.6476 345.884 53.3267 349.401 51.7091C352.917 50.0212 356.926 49.1772 361.427 49.1772C367.476 49.2475 372.258 48.8256 375.775 47.9113C379.361 46.997 383.159 45.5552 387.168 43.5859L390.227 53.397ZM361.533 57.4059C357.805 57.4059 354.992 58.4608 353.093 60.5707C351.194 62.6103 350.245 65.3884 350.245 68.9049C350.245 72.4917 351.194 75.3401 353.093 77.45C355.062 79.4896 357.911 80.5094 361.638 80.5094C365.155 80.5094 367.827 79.4896 369.656 77.45C371.484 75.4104 372.399 72.4917 372.399 68.6939C372.399 61.1685 368.777 57.4059 361.533 57.4059Z" fill="#0D102B"/>
<path d="M409.07 82.3028C409.422 87.7182 410.969 91.7974 413.712 94.5403C416.525 97.2128 420.041 98.5491 424.261 98.5491C426.863 98.5491 429.325 98.1623 431.646 97.3887C434.037 96.5447 436.464 95.3139 438.925 93.6963L443.989 100.87C441.387 103.05 438.327 104.738 434.811 105.934C431.294 107.129 427.602 107.727 423.734 107.727C415.224 107.727 408.613 105.09 403.901 99.815C399.188 94.4699 396.832 87.3666 396.832 78.505C396.832 72.9489 397.852 67.9554 399.892 63.5246C401.931 59.0235 404.885 55.5069 408.753 52.975C412.622 50.4432 417.123 49.1772 422.257 49.1772C429.642 49.1772 435.479 51.6739 439.769 56.6674C444.13 61.5905 446.31 68.3774 446.31 77.028C446.31 79.1379 446.204 80.8962 445.993 82.3028H409.07ZM422.362 57.9333C418.564 57.9333 415.47 59.3048 413.079 62.0477C410.687 64.7905 409.316 68.8697 408.964 74.2851H434.811C434.67 69.0104 433.545 64.9664 431.435 62.1532C429.325 59.3399 426.301 57.9333 422.362 57.9333Z" fill="#0D102B"/>
<path d="M497.75 49.2827C500.634 49.2827 503.447 49.7399 506.19 50.6542L504.186 71.2258H495.746V59.8323C491.878 59.9026 488.502 61.4499 485.618 64.4741C482.805 67.4983 480.555 71.7532 478.867 77.239V97.9161H490.049V106.356H458.823V97.9161H467.051V59.0938H458.823V50.6542H476.018L478.128 63.5246C480.308 58.7421 482.946 55.1905 486.04 52.8696C489.205 50.4783 493.109 49.2827 497.75 49.2827Z" fill="#0D102B"/>
<path d="M544.549 49.1772C558.053 49.1772 564.804 58.918 564.804 78.3995C564.804 87.1908 562.941 94.2941 559.213 99.7096C555.486 105.055 550.176 107.727 543.283 107.727C537.446 107.727 532.734 105.688 529.147 101.608V127.771L517.331 129.143V50.6542H527.564L528.303 57.8278C530.413 55.0146 532.839 52.8696 535.582 51.3926C538.395 49.9157 541.384 49.1772 544.549 49.1772ZM541.279 58.2498C538.817 58.2498 536.567 58.9883 534.527 60.4652C532.488 61.9422 530.694 63.8762 529.147 66.2675V92.3249C531.89 96.4744 535.547 98.5491 540.118 98.5491C544.198 98.5491 547.257 96.9315 549.297 93.6963C551.336 90.4611 552.356 85.3973 552.356 78.505C552.356 71.4016 551.442 66.2675 549.613 63.1026C547.784 59.8674 545.006 58.2498 541.279 58.2498Z" fill="#0D102B"/>
<path d="M615.823 49.2827C618.707 49.2827 621.52 49.7399 624.263 50.6542L622.258 71.2258H613.819V59.8323C609.95 59.9026 606.574 61.4499 603.691 64.4741C600.878 67.4983 598.627 71.7532 596.939 77.239V97.9161H608.122V106.356H576.895V97.9161H585.124V59.0938H576.895V50.6542H594.091L596.201 63.5246C598.381 58.7421 601.018 55.1905 604.113 52.8696C607.278 50.4783 611.181 49.2827 615.823 49.2827Z" fill="#0D102B"/>
<path d="M657.663 23.3308C659.914 23.3308 661.743 24.0693 663.149 25.5462C664.626 26.9528 665.365 28.7111 665.365 30.821C665.365 32.9309 664.626 34.6892 663.149 36.0958C661.743 37.5024 659.914 38.2057 657.663 38.2057C655.343 38.2057 653.479 37.5024 652.072 36.0958C650.666 34.6892 649.962 32.9309 649.962 30.821C649.962 28.6408 650.666 26.8473 652.072 25.4407C653.549 24.0341 655.413 23.3308 657.663 23.3308ZM665.787 97.7051H680.978V106.356H637.408V97.7051H653.971V59.3048H637.936V50.6542H665.787V97.7051Z" fill="#0D102B"/>
<path d="M694.44 50.6542H704.673L705.517 57.9333C707.838 55.1201 710.546 52.975 713.64 51.4981C716.805 49.9508 720.111 49.1772 723.557 49.1772C728.691 49.1772 732.559 50.619 735.161 53.5025C737.764 56.3861 739.065 60.4652 739.065 65.74V106.356H727.249V71.6478C727.249 68.2016 727.038 65.5642 726.616 63.7356C726.265 61.8367 725.526 60.4652 724.401 59.6213C723.276 58.707 721.588 58.2498 719.337 58.2498C716.805 58.2498 714.379 59.0235 712.058 60.5707C709.807 62.118 707.873 64.0521 706.256 66.373V106.356H694.44V50.6542Z" fill="#0D102B"/>
<path d="M800 103.402C797.89 104.738 795.429 105.793 792.615 106.567C789.802 107.34 786.848 107.727 783.754 107.727C777.424 107.727 772.536 106.11 769.09 102.874C765.644 99.5689 763.92 95.1029 763.92 89.4765V59.3048H751.578V50.6542H763.92V38.2057L775.736 36.8342V50.6542H794.62L793.248 59.3048H775.736V89.371C775.736 92.3952 776.51 94.6458 778.057 96.1227C779.604 97.5293 782.066 98.2326 785.442 98.2326C789.169 98.2326 792.615 97.3535 795.78 95.5952L800 103.402Z" fill="#0D102B"/>
<rect x="828.5" y="17.9565" width="195" height="117" rx="58.5" stroke="#0D102B" stroke-width="7"/>
<path d="M913.579 43.765V84.22C913.579 87.46 913.099 90.49 912.139 93.31C911.179 96.13 909.709 98.575 907.729 100.645C905.779 102.715 903.319 104.335 900.349 105.505C897.379 106.675 893.884 107.26 889.864 107.26C886.204 107.26 882.904 106.75 879.964 105.73C877.054 104.71 874.294 103.285 871.684 101.455L876.544 93.76C878.854 95.29 880.999 96.355 882.979 96.955C884.989 97.525 887.074 97.81 889.234 97.81C892.834 97.81 895.744 96.67 897.964 94.39C900.184 92.08 901.294 88.675 901.294 84.175V53.035H882.394V43.765H913.579ZM971.189 88.135C971.189 91.915 970.214 95.245 968.264 98.125C966.344 101.005 963.569 103.27 959.939 104.92C956.309 106.54 951.914 107.35 946.754 107.35C941.354 107.35 936.719 106.555 932.849 104.965C928.979 103.345 925.739 101.275 923.129 98.755L929.609 91.51C931.859 93.52 934.379 95.095 937.169 96.235C939.959 97.375 943.094 97.945 946.574 97.945C948.794 97.945 950.789 97.6 952.559 96.91C954.359 96.22 955.769 95.215 956.789 93.895C957.839 92.545 958.364 90.895 958.364 88.945C958.364 87.235 958.004 85.795 957.284 84.625C956.564 83.455 955.319 82.405 953.549 81.475C951.809 80.545 949.379 79.615 946.259 78.685C941.669 77.275 937.889 75.73 934.919 74.05C931.949 72.34 929.744 70.33 928.304 68.02C926.864 65.68 926.144 62.92 926.144 59.74C926.144 56.17 927.134 53.095 929.114 50.515C931.094 47.905 933.764 45.91 937.124 44.53C940.514 43.12 944.294 42.415 948.464 42.415C953.084 42.415 957.149 43.09 960.659 44.44C964.169 45.76 967.259 47.65 969.929 50.11L963.764 57.085C961.634 55.255 959.324 53.905 956.834 53.035C954.374 52.165 951.869 51.73 949.319 51.73C947.309 51.73 945.509 52 943.919 52.54C942.359 53.08 941.129 53.875 940.229 54.925C939.329 55.975 938.879 57.31 938.879 58.93C938.879 60.4 939.284 61.66 940.094 62.71C940.934 63.73 942.359 64.69 944.369 65.59C946.379 66.46 949.139 67.45 952.649 68.56C956.339 69.67 959.564 71.005 962.324 72.565C965.114 74.125 967.289 76.15 968.849 78.64C970.409 81.1 971.189 84.265 971.189 88.135Z" fill="#0D102B"/>
</svg>
