<svg width="801" height="140" fill="none" xmlns="http://www.w3.org/2000/svg"><path fill-rule="evenodd" clip-rule="evenodd" d="M22.458 10.796C35.1 4.397 50.668 0 67.405 0 83.287 0 99.4 4.198 112.079 10.614a4.014 4.014 0 0 1-3.624 7.161c-11.601-5.871-26.479-9.749-41.05-9.749-15.352 0-29.686 4.042-41.323 9.931a4.013 4.013 0 0 1-3.624-7.161Zm7.933 13.943c10.949-5.11 25.038-7.83 36.961-7.83 11.94 0 25.677 2.726 36.613 7.83 12.19 5.69 22.389 13.95 29.376 23.655a4.013 4.013 0 1 1-6.513 4.69c-6.104-8.477-15.177-15.899-26.258-21.072-9.76-4.556-22.32-7.077-33.218-7.077-10.915 0-23.82 2.528-33.566 7.077C23.173 36.966 13.66 44.935 7.718 53.253a4.013 4.013 0 0 1-6.53-4.665c6.784-9.498 17.4-18.34 29.203-23.849Zm36.385 8.714c23.349-.224 43.704 11.8 54.025 29.042 5.415 9.047 7.297 18.136 7.297 25.878 0 12.956-11.847 21.104-22.558 21.104-5.386 0-11.077-1.442-15.57-4.867-4.615-3.52-7.677-8.93-7.895-16.115-.14-4.597-2.257-7.666-5.145-9.707-3.023-2.136-6.911-3.128-10.116-3.128-8.703 0-14.895 6.413-14.895 12.713 0 5.034 1.573 12.062 3.652 16.73 2.104 4.722 5.874 10.219 9.572 13.566l.038.035.038.035c6.001 5.718 13.523 10.824 24.545 13.334a4.013 4.013 0 1 1-1.782 7.826c-12.71-2.895-21.468-8.849-28.263-15.314-4.642-4.214-9.004-10.66-11.48-16.215-2.505-5.626-4.346-13.762-4.346-19.997 0-11.517 10.614-20.74 22.921-20.74 4.613 0 10.179 1.372 14.747 4.6 4.702 3.322 8.312 8.616 8.536 16.019.146 4.814 2.084 7.95 4.74 9.975 2.78 2.12 6.634 3.224 10.703 3.224 7.482 0 14.531-5.67 14.531-13.078 0-6.438-1.56-14.076-6.157-21.756-8.817-14.729-26.483-25.336-47.061-25.138-17.839.172-36.854 8.594-46.589 24.948-4.152 6.976-6.234 14.948-5.982 23.28.346 11.403 2.016 16.218 5.015 24.156a4.014 4.014 0 0 1-7.508 2.837c-3.182-8.425-5.148-14.155-5.53-26.75-.298-9.85 2.17-19.332 7.109-27.628 11.476-19.281 33.43-28.677 53.407-28.869ZM25.165 87.61c.024-20.698 19.98-37.065 41.648-37.065 21.561 0 42.375 14.83 42.375 38.375a4.013 4.013 0 1 1-8.026 0c0-17.908-15.912-30.35-34.349-30.35-18.318 0-33.622 13.794-33.622 29.077v.074c-.154 8.393 1.184 16.423 5.562 25.012 4.456 8.739 9.815 14.68 14.712 18.991a4.013 4.013 0 0 1-5.303 6.025c-5.507-4.849-11.56-11.566-16.56-21.371-5.069-9.944-6.606-19.308-6.437-28.768Zm41.648-3.249a4.013 4.013 0 0 1 4.013 4.013c0 5.044 1.385 9.816 4.007 14.356 2.537 4.392 5.841 7.556 10.344 10.284 6.526 3.561 11.048 4.795 17.896 4.62l.027-.001h.028c2.678-.032 5.827-.253 8.326-.688a4.012 4.012 0 1 1 1.379 7.906c-3.041.531-6.633.771-9.583.807-8.479.213-14.393-1.482-22-5.644l-.074-.04-.072-.044c-5.522-3.33-9.894-7.427-13.22-13.185-3.255-5.634-5.084-11.778-5.084-18.37a4.013 4.013 0 0 1 4.013-4.014Z" fill="#F04405"/><path d="M179.799 65.978h27.429v9.283h-27.429v31.016h-12.237V33.485h44.73l-1.266 9.284h-31.227v23.209ZM244.849 23.252c2.251 0 4.079.738 5.486 2.215 1.477 1.407 2.215 3.165 2.215 5.275 0 2.11-.738 3.868-2.215 5.275-1.407 1.406-3.235 2.11-5.486 2.11-2.321 0-4.185-.704-5.591-2.11-1.407-1.407-2.11-3.165-2.11-5.275 0-2.18.703-3.974 2.11-5.38 1.477-1.407 3.34-2.11 5.591-2.11Zm8.123 74.374h15.192v8.651h-43.57v-8.65h16.563V59.225h-16.036v-8.65h27.851v47.05ZM281.626 50.575h10.233l.844 7.28c2.321-2.814 5.028-4.959 8.123-6.436 3.165-1.547 6.47-2.32 9.916-2.32 5.135 0 9.003 1.441 11.605 4.325 2.602 2.883 3.903 6.962 3.903 12.237v40.616h-11.815V71.569c0-3.446-.211-6.084-.633-7.912-.352-1.9-1.09-3.27-2.216-4.115-1.125-.914-2.813-1.371-5.063-1.371-2.532 0-4.959.773-7.28 2.32-2.25 1.548-4.184 3.482-5.802 5.803v39.983h-11.815V50.575ZM390.667 53.318c-2.04.703-4.361 1.196-6.963 1.477-2.532.211-5.591.316-9.178.316 3.376 1.548 5.908 3.482 7.596 5.803 1.688 2.32 2.532 5.134 2.532 8.44 0 3.656-.915 6.892-2.743 9.705-1.759 2.813-4.29 5.029-7.596 6.646-3.305 1.618-7.209 2.427-11.71 2.427-3.165 0-5.697-.317-7.596-.95a5.767 5.767 0 0 0-1.793 2.11 5.202 5.202 0 0 0-.633 2.532c0 2.813 2.286 4.22 6.857 4.22h9.706c3.938 0 7.455.668 10.549 2.004 3.095 1.336 5.486 3.2 7.174 5.591 1.758 2.321 2.637 4.959 2.637 7.913 0 5.556-2.391 9.846-7.173 12.87-4.783 3.095-11.675 4.642-20.677 4.642-6.26 0-11.218-.668-14.875-2.005-3.587-1.266-6.154-3.164-7.701-5.696-1.477-2.462-2.216-5.662-2.216-9.6h10.55c0 2.109.387 3.762 1.16 4.958.844 1.266 2.286 2.18 4.325 2.743 2.04.633 4.994.949 8.862.949 5.627 0 9.671-.703 12.132-2.11 2.462-1.336 3.692-3.34 3.692-6.013 0-2.251-.984-4.009-2.953-5.275-1.899-1.195-4.502-1.793-7.807-1.793h-9.6c-4.994 0-8.792-1.02-11.394-3.06-2.532-2.039-3.798-4.606-3.798-7.7 0-1.9.528-3.728 1.583-5.487 1.055-1.758 2.567-3.27 4.536-4.536-3.305-1.758-5.732-3.868-7.279-6.33-1.477-2.531-2.215-5.626-2.215-9.283 0-3.868.984-7.28 2.953-10.233 1.97-3.024 4.713-5.345 8.229-6.963 3.517-1.688 7.525-2.532 12.027-2.532 6.048.07 10.83-.351 14.347-1.266 3.587-.914 7.385-2.356 11.393-4.325l3.06 9.811Zm-28.695 4.009c-3.727 0-6.541 1.055-8.44 3.165-1.898 2.04-2.848 4.817-2.848 8.334 0 3.587.95 6.435 2.848 8.545 1.97 2.04 4.818 3.06 8.546 3.06 3.516 0 6.189-1.02 8.017-3.06 1.829-2.04 2.743-4.958 2.743-8.756 0-7.525-3.622-11.288-10.866-11.288ZM409.509 82.224c.352 5.415 1.899 9.494 4.642 12.237 2.813 2.673 6.33 4.01 10.55 4.01 2.602 0 5.063-.388 7.384-1.161 2.392-.844 4.818-2.075 7.28-3.693l5.063 7.174c-2.602 2.18-5.661 3.868-9.178 5.064-3.516 1.195-7.209 1.793-11.077 1.793-8.51 0-15.121-2.637-19.833-7.912-4.712-5.345-7.068-12.448-7.068-21.31 0-5.556 1.02-10.55 3.059-14.98 2.04-4.502 4.994-8.018 8.862-10.55 3.868-2.532 8.369-3.798 13.503-3.798 7.385 0 13.222 2.497 17.513 7.49 4.36 4.923 6.54 11.71 6.54 20.361 0 2.11-.105 3.868-.316 5.275h-36.924Zm13.293-24.37c-3.798 0-6.893 1.372-9.284 4.115-2.391 2.743-3.763 6.822-4.114 12.237h25.846c-.14-5.275-1.266-9.319-3.376-12.132-2.11-2.813-5.134-4.22-9.072-4.22ZM498.19 49.204c2.883 0 5.697.457 8.44 1.371l-2.005 20.572h-8.44V59.753c-3.868.07-7.244 1.618-10.127 4.642-2.813 3.024-5.064 7.28-6.752 12.765v20.677h11.183v8.44h-31.227v-8.44h8.229V59.015h-8.229v-8.44h17.196l2.11 12.87c2.18-4.782 4.817-8.334 7.912-10.654 3.165-2.392 7.068-3.587 11.71-3.587ZM544.989 49.098c13.503 0 20.255 9.741 20.255 29.222 0 8.792-1.864 15.895-5.591 21.31-3.728 5.346-9.038 8.018-15.93 8.018-5.838 0-10.55-2.039-14.137-6.119v26.163l-11.815 1.372V50.575h10.233l.738 7.174c2.11-2.813 4.537-4.958 7.28-6.435a19.016 19.016 0 0 1 8.967-2.216Zm-3.271 9.073c-2.461 0-4.712.738-6.751 2.215-2.04 1.477-3.833 3.411-5.381 5.803v26.057c2.743 4.15 6.4 6.224 10.972 6.224 4.079 0 7.138-1.617 9.178-4.853 2.04-3.235 3.059-8.299 3.059-15.191 0-7.103-.914-12.237-2.743-15.402-1.828-3.236-4.606-4.853-8.334-4.853ZM616.262 49.204c2.884 0 5.697.457 8.44 1.371l-2.004 20.572h-8.44V59.753c-3.868.07-7.244 1.618-10.128 4.642-2.813 3.024-5.063 7.28-6.751 12.765v20.677h11.182v8.44h-31.226v-8.44h8.228V59.015h-8.228v-8.44h17.195l2.11 12.87c2.18-4.782 4.818-8.334 7.912-10.654 3.165-2.392 7.069-3.587 11.71-3.587ZM658.103 23.252c2.25 0 4.079.738 5.486 2.215 1.477 1.407 2.215 3.165 2.215 5.275 0 2.11-.738 3.868-2.215 5.275-1.407 1.406-3.236 2.11-5.486 2.11-2.321 0-4.185-.704-5.591-2.11-1.407-1.407-2.11-3.165-2.11-5.275 0-2.18.703-3.974 2.11-5.38 1.477-1.407 3.34-2.11 5.591-2.11Zm8.123 74.374h15.191v8.651h-43.569v-8.65h16.563V59.225h-16.036v-8.65h27.851v47.05ZM694.88 50.575h10.233l.844 7.28c2.321-2.814 5.028-4.959 8.123-6.436 3.165-1.547 6.47-2.32 9.916-2.32 5.135 0 9.003 1.441 11.605 4.325 2.602 2.883 3.903 6.962 3.903 12.237v40.616h-11.815V71.569c0-3.446-.211-6.084-.633-7.912-.352-1.9-1.09-3.27-2.216-4.115-1.125-.914-2.813-1.371-5.063-1.371-2.532 0-4.959.773-7.28 2.32-2.25 1.548-4.184 3.482-5.802 5.803v39.983H694.88V50.575ZM800.439 103.323c-2.109 1.336-4.571 2.391-7.384 3.165-2.813.773-5.767 1.16-8.862 1.16-6.33 0-11.218-1.617-14.664-4.853-3.446-3.305-5.169-7.771-5.169-13.398V59.226h-12.343v-8.65h12.343v-12.45l11.815-1.37v13.82h18.884l-1.371 8.65h-17.513v30.066c0 3.024.774 5.275 2.321 6.752 1.548 1.406 4.009 2.11 7.385 2.11 3.728 0 7.174-.88 10.339-2.638l4.219 7.807Z" fill="#919194"/></svg>