<svg width="930" height="140" viewBox="0 0 930 140" fill="none" xmlns="http://www.w3.org/2000/svg">
<path fill-rule="evenodd" clip-rule="evenodd" d="M22.0186 10.7957C34.6609 4.39745 50.2282 0 66.9654 0C82.8476 0 98.9619 4.19771 111.64 10.6139C113.617 11.6147 114.409 14.0291 113.408 16.0067C112.407 17.9842 109.993 18.776 108.015 17.7751C96.4142 11.9038 81.5367 8.02618 66.9654 8.02618C51.6131 8.02618 37.2795 12.0677 25.643 17.957C23.6654 18.9578 21.251 18.166 20.2502 16.1885C19.2493 14.2109 20.0411 11.7965 22.0186 10.7957ZM29.9512 24.7394C40.9002 19.6284 54.9892 16.9084 66.9129 16.9084C78.8532 16.9084 92.5897 19.6347 103.525 24.7394C115.715 30.4297 125.914 38.6891 132.902 48.3937C134.197 50.1923 133.788 52.7003 131.99 53.9953C130.191 55.2903 127.683 54.8821 126.388 53.0834C120.285 44.6069 111.212 37.1851 100.13 32.0122C90.3706 27.4564 77.8115 24.9346 66.9129 24.9346C55.9976 24.9346 43.0924 27.4627 33.3462 32.0122C22.7336 36.9661 13.2208 44.9353 7.27887 53.2531C5.99055 55.0565 3.48416 55.4741 1.68068 54.1858C-0.122787 52.8975 -0.540397 50.3911 0.747927 48.5876C7.53282 39.0897 18.1495 30.2484 29.9512 24.7394ZM66.336 33.4534C89.6851 33.2289 110.041 45.2532 120.361 62.495C125.777 71.5415 127.658 80.6305 127.658 88.3734C127.658 101.329 115.812 109.477 105.1 109.477C99.7148 109.477 94.0239 108.035 89.5312 104.61C84.9153 101.09 81.8531 95.6805 81.6353 88.495C81.496 83.8984 79.379 80.829 76.4901 78.7878C73.4678 76.6522 69.5794 75.6599 66.3746 75.6599C57.672 75.6599 51.4793 82.0735 51.4793 88.3734C51.4793 93.4075 53.0522 100.435 55.1318 105.103C57.2357 109.825 61.0052 115.322 64.7039 118.669L64.742 118.704L64.7792 118.739C70.7809 124.457 78.3025 129.563 89.3249 132.073C91.4859 132.565 92.8388 134.716 92.3466 136.877C91.8544 139.038 89.7035 140.391 87.5425 139.899C74.8322 137.004 66.0745 131.05 59.2795 124.585C54.6376 120.371 50.2754 113.925 47.8004 108.37C45.2941 102.744 43.4532 94.6076 43.4532 88.3734C43.4532 76.8558 54.0672 67.6337 66.3746 67.6337C70.9876 67.6337 76.5535 69.0049 81.1217 72.2328C85.8234 75.555 89.4335 80.8489 89.6578 88.2519C89.8037 93.0658 91.7413 96.2015 94.3978 98.2271C97.1776 100.347 101.032 101.451 105.1 101.451C112.583 101.451 119.632 95.7811 119.632 88.3734C119.632 81.935 118.072 74.2974 113.475 66.6173C104.658 51.888 86.992 41.2814 66.4132 41.4792C48.5746 41.6508 29.5596 50.0728 19.825 66.427C15.6726 73.403 13.5901 81.3751 13.8426 89.7064C14.1882 101.11 15.859 105.925 18.858 113.863C19.6413 115.937 18.5955 118.252 16.5221 119.036C14.4488 119.819 12.133 118.773 11.3497 116.7C8.16721 108.275 6.20179 102.545 5.82011 89.9495C5.52163 80.0996 7.98999 70.6178 12.9281 62.3217C24.4048 43.0409 46.3579 33.6455 66.336 33.4534ZM24.7266 87.6087C24.7507 66.911 44.7072 50.5435 66.3746 50.5435C87.9356 50.5435 108.75 65.3737 108.75 88.9188C108.75 91.1352 106.953 92.9319 104.737 92.9319C102.52 92.9319 100.724 91.1352 100.724 88.9188C100.724 71.011 84.812 58.5697 66.3746 58.5697C48.0566 58.5697 32.7528 72.363 32.7528 87.6462V87.6829L32.7521 87.7196C32.5985 96.1131 33.9365 104.143 38.3148 112.732C42.7703 121.471 48.1294 127.412 53.0269 131.723C54.6905 133.187 54.8519 135.723 53.3875 137.387C51.923 139.051 49.3872 139.212 47.7236 137.748C42.2163 132.899 36.1628 126.182 31.1642 116.377C26.0947 106.433 24.5578 97.0686 24.7266 87.6087ZM66.3746 84.3603C68.591 84.3603 70.3877 86.157 70.3877 88.3734C70.3877 93.4169 71.7725 98.1891 74.3949 102.729C76.9318 107.121 80.2357 110.285 84.7385 113.013C91.2643 116.574 95.7869 117.808 102.634 117.633L102.662 117.632L102.689 117.632C105.367 117.6 108.517 117.379 111.016 116.944C113.199 116.563 115.278 118.024 115.659 120.207C116.04 122.391 114.578 124.47 112.395 124.85C109.353 125.381 105.762 125.621 102.811 125.657C94.3325 125.87 88.4182 124.175 80.8113 120.013L80.7373 119.973L80.6651 119.929C75.1434 116.599 70.7711 112.502 67.4448 106.744C64.1907 101.11 62.3615 94.9659 62.3615 88.3734C62.3615 86.157 64.1582 84.3603 66.3746 84.3603Z" fill="#F04405"/>
<path d="M179.381 43.5271V66.3059H206.31V75.4381H179.381V106H167.343V34.3949H211.395L210.046 43.5271H179.381ZM252.45 51.2065V97.4904H267.342V106H224.43V97.4904H240.827V59.7161H224.949V51.2065H252.45ZM244.355 24.3805C246.638 24.3805 248.472 25.0724 249.855 26.4561C251.274 27.8397 251.983 29.5693 251.983 31.6448C251.983 33.7203 251.274 35.4672 249.855 36.8855C248.472 38.3038 246.638 39.0129 244.355 39.0129C242.141 39.0129 240.325 38.3038 238.907 36.8855C237.489 35.4672 236.78 33.7203 236.78 31.6448C236.78 29.5693 237.489 27.8397 238.907 26.4561C240.325 25.0724 242.141 24.3805 244.355 24.3805ZM281.622 106V51.2065H291.636L292.519 58.3151C294.802 55.5132 297.5 53.3858 300.613 51.933C303.726 50.4801 306.926 49.7537 310.212 49.7537C315.332 49.7537 319.154 51.1892 321.679 54.0603C324.239 56.8969 325.519 60.8922 325.519 66.0464V106H313.896V71.806C313.896 68.6235 313.706 66.0637 313.326 64.1266C312.945 62.1894 312.184 60.7885 311.042 59.9237C309.936 59.0589 308.275 58.6265 306.061 58.6265C304.297 58.6265 302.619 59.007 301.028 59.768C299.437 60.529 297.984 61.5322 296.67 62.7775C295.355 63.9882 294.214 65.2854 293.245 66.6691V106H281.622ZM386.862 44.2536L389.975 53.9047C387.796 54.6311 385.392 55.1154 382.763 55.3575C380.168 55.5997 377.263 55.7208 374.046 55.7208C377.332 57.1736 379.805 59.0416 381.466 61.3246C383.126 63.5731 383.956 66.3405 383.956 69.6267C383.956 73.1896 383.091 76.3721 381.362 79.174C379.632 81.976 377.159 84.1725 373.942 85.7638C370.725 87.355 366.868 88.1506 362.371 88.1506C360.78 88.1506 359.396 88.0814 358.22 87.9431C357.078 87.8047 355.954 87.5798 354.847 87.2685C354.155 87.7528 353.567 88.41 353.083 89.2403C352.633 90.0359 352.408 90.8834 352.408 91.7828C352.408 92.8897 352.858 93.8583 353.757 94.6885C354.691 95.4841 356.525 95.8819 359.258 95.8819H368.805C372.714 95.8819 376.156 96.5564 379.131 97.9055C382.14 99.22 384.492 101.036 386.187 103.354C387.917 105.637 388.782 108.231 388.782 111.137C388.782 116.602 386.429 120.84 381.725 123.849C377.02 126.859 370.24 128.364 361.385 128.364C355.124 128.364 350.212 127.724 346.649 126.444C343.086 125.164 340.578 123.261 339.125 120.736C337.672 118.211 336.946 115.115 336.946 111.448H347.375C347.375 113.351 347.738 114.925 348.465 116.17C349.226 117.415 350.627 118.349 352.668 118.972C354.709 119.595 357.649 119.906 361.489 119.906C365.328 119.906 368.373 119.577 370.621 118.92C372.904 118.297 374.547 117.381 375.55 116.17C376.588 114.994 377.107 113.576 377.107 111.915C377.107 109.701 376.138 107.989 374.201 106.778C372.264 105.568 369.67 104.962 366.418 104.962H357.026C351.838 104.962 348.033 103.907 345.611 101.797C343.224 99.687 342.031 97.231 342.031 94.429C342.031 92.5611 342.55 90.7623 343.587 89.0327C344.66 87.3031 346.182 85.7984 348.154 84.5185C344.867 82.7889 342.463 80.6961 340.941 78.24C339.454 75.7494 338.71 72.7399 338.71 69.2116C338.71 65.3373 339.679 61.9473 341.616 59.0416C343.553 56.1359 346.234 53.8701 349.658 52.2443C353.118 50.6185 357.096 49.8056 361.593 49.8056C365.986 49.8056 369.652 49.5807 372.593 49.131C375.533 48.6467 378.093 47.9722 380.272 47.1074C382.486 46.2426 384.683 45.2913 386.862 44.2536ZM361.696 57.7963C357.995 57.7963 355.21 58.8513 353.342 60.9614C351.474 63.0369 350.54 65.7524 350.54 69.1078C350.54 72.567 351.492 75.3516 353.394 77.4617C355.331 79.5372 358.151 80.575 361.852 80.575C365.277 80.575 367.888 79.5718 369.687 77.5655C371.52 75.5592 372.437 72.7054 372.437 69.004C372.437 65.2681 371.538 62.4662 369.739 60.5982C367.94 58.7302 365.259 57.7963 361.696 57.7963ZM409.496 82.3392C409.738 86.0751 410.534 89.1365 411.883 91.5233C413.232 93.8756 414.996 95.6052 417.176 96.7121C419.39 97.819 421.811 98.3725 424.44 98.3725C427.138 98.3725 429.629 97.9574 431.912 97.1272C434.195 96.297 436.495 95.1209 438.813 93.5988L443.846 100.552C441.286 102.627 438.294 104.288 434.869 105.533C431.445 106.778 427.778 107.401 423.869 107.401C418.196 107.401 413.388 106.19 409.444 103.769C405.535 101.347 402.561 97.9747 400.52 93.6507C398.479 89.3267 397.458 84.3282 397.458 78.6551C397.458 73.155 398.461 68.243 400.468 63.919C402.474 59.5605 405.345 56.1186 409.081 53.5934C412.817 51.0336 417.279 49.7537 422.468 49.7537C427.346 49.7537 431.531 50.8606 435.025 53.0745C438.553 55.2884 441.269 58.4362 443.171 62.5181C445.109 66.5653 446.077 71.4428 446.077 77.1504C446.077 78.0844 446.043 79.0184 445.973 79.9523C445.939 80.8517 445.887 81.6473 445.818 82.3392H409.496ZM422.572 58.367C418.94 58.367 415.93 59.6642 413.544 62.2586C411.191 64.853 409.825 68.9003 409.444 74.4004H434.817C434.714 69.2462 433.607 65.2854 431.497 62.5181C429.421 59.7507 426.446 58.367 422.572 58.367ZM459.476 106V97.698H467.518V59.4567H459.476V51.2065H476.391L478.518 63.919C480.559 59.3183 483.084 55.8245 486.094 53.4377C489.138 51.0163 493.047 49.8056 497.821 49.8056C499.446 49.8056 500.899 49.9439 502.179 50.2207C503.494 50.4628 504.791 50.7914 506.071 51.2065L502.594 61.169C501.487 60.8576 500.45 60.6328 499.481 60.4944C498.512 60.3215 497.44 60.235 496.264 60.235C492.286 60.235 488.844 61.7224 485.938 64.6973C483.067 67.6722 480.801 71.8924 479.141 77.358V97.698H490.193V106H459.476ZM495.797 71.3909V57.9L497.25 51.2065H506.071L504.099 71.3909H495.797ZM544.79 49.7537C549.633 49.7537 553.507 50.9471 556.413 53.3339C559.319 55.6862 561.429 59.0243 562.744 63.3483C564.058 67.6376 564.715 72.6881 564.715 78.4995C564.715 84.0688 563.92 89.0327 562.328 93.3913C560.737 97.7498 558.368 101.174 555.22 103.665C552.107 106.156 548.232 107.401 543.597 107.401C537.855 107.401 533.219 105.377 529.691 101.33V127.066L518.068 128.364V51.2065H528.186L528.913 58.2633C530.988 55.4267 533.392 53.2993 536.125 51.8811C538.892 50.4628 541.781 49.7537 544.79 49.7537ZM541.573 58.7302C538.979 58.7302 536.696 59.5086 534.724 61.0652C532.752 62.6218 531.075 64.4552 529.691 66.5653V92.1979C531.005 94.1696 532.562 95.6916 534.361 96.764C536.194 97.8017 538.252 98.3206 540.536 98.3206C544.444 98.3206 547.419 96.7467 549.46 93.5988C551.501 90.451 552.522 85.4351 552.522 78.5514C552.522 73.8815 552.107 70.0937 551.276 67.188C550.481 64.2476 549.27 62.103 547.644 60.7539C546.053 59.4048 544.029 58.7302 541.573 58.7302ZM577.699 106V97.698H585.741V59.4567H577.699V51.2065H594.614L596.741 63.919C598.782 59.3183 601.307 55.8245 604.317 53.4377C607.361 51.0163 611.27 49.8056 616.044 49.8056C617.669 49.8056 619.122 49.9439 620.402 50.2207C621.717 50.4628 623.014 50.7914 624.294 51.2065L620.817 61.169C619.71 60.8576 618.673 60.6328 617.704 60.4944C616.735 60.3215 615.663 60.235 614.487 60.235C610.509 60.235 607.067 61.7224 604.161 64.6973C601.29 67.6722 599.024 71.8924 597.364 77.358V97.698H608.416V106H577.699ZM614.02 71.3909V57.9L615.473 51.2065H624.294L622.322 71.3909H614.02ZM666.23 51.2065V97.4904H681.122V106H638.211V97.4904H654.608V59.7161H638.73V51.2065H666.23ZM658.136 24.3805C660.419 24.3805 662.252 25.0724 663.636 26.4561C665.054 27.8397 665.763 29.5693 665.763 31.6448C665.763 33.7203 665.054 35.4672 663.636 36.8855C662.252 38.3038 660.419 39.0129 658.136 39.0129C655.922 39.0129 654.106 38.3038 652.688 36.8855C651.269 35.4672 650.56 33.7203 650.56 31.6448C650.56 29.5693 651.269 27.8397 652.688 26.4561C654.106 25.0724 655.922 24.3805 658.136 24.3805ZM695.403 106V51.2065H705.417L706.299 58.3151C708.582 55.5132 711.28 53.3858 714.394 51.933C717.507 50.4801 720.707 49.7537 723.993 49.7537C729.112 49.7537 732.935 51.1892 735.46 54.0603C738.02 56.8969 739.3 60.8922 739.3 66.0464V106H727.677V71.806C727.677 68.6235 727.487 66.0637 727.106 64.1266C726.726 62.1894 725.965 60.7885 724.823 59.9237C723.716 59.0589 722.056 58.6265 719.842 58.6265C718.078 58.6265 716.4 59.007 714.809 59.768C713.218 60.529 711.765 61.5322 710.45 62.7775C709.136 63.9882 707.994 65.2854 707.026 66.6691V106H695.403ZM800.279 103.094C798.273 104.374 795.869 105.412 793.067 106.208C790.265 107.003 787.342 107.401 784.298 107.401C777.933 107.401 773.09 105.758 769.769 102.472C766.483 99.1508 764.84 94.7922 764.84 89.3959V59.6642H752.646V51.2065H764.84V38.961L776.463 37.56V51.2065H794.935L793.638 59.6642H776.463V89.2921C776.463 92.2324 777.189 94.429 778.642 95.8819C780.129 97.3002 782.551 98.0093 785.906 98.0093C787.913 98.0093 789.763 97.7671 791.458 97.2829C793.153 96.7986 794.693 96.1759 796.076 95.4149L800.279 103.094ZM860.221 34.3949V81.4571C860.221 84.8817 859.737 88.1506 858.768 91.2639C857.799 94.3771 856.26 97.1445 854.15 99.5659C852.075 101.953 849.376 103.855 846.056 105.274C842.769 106.657 838.791 107.349 834.121 107.349C830.178 107.349 826.528 106.778 823.173 105.637C819.818 104.495 816.67 102.869 813.729 100.759L818.659 93.0799C821.495 94.9479 824.107 96.2105 826.494 96.8678C828.915 97.525 831.302 97.8536 833.654 97.8536C838.151 97.8536 841.697 96.4181 844.291 93.5469C846.92 90.6758 848.235 86.5594 848.235 81.1976V43.6309H826.701V34.3949H860.221ZM923.535 85.7638C923.535 89.984 922.446 93.7372 920.266 97.0234C918.122 100.275 915.008 102.818 910.927 104.651C906.879 106.484 901.985 107.401 896.242 107.401C890.431 107.401 885.329 106.536 880.935 104.807C876.577 103.042 872.893 100.707 869.883 97.8017L876.473 90.4337C879.033 92.7513 881.921 94.5847 885.138 95.9338C888.355 97.2483 892.039 97.9055 896.19 97.9055C898.889 97.9055 901.362 97.4904 903.61 96.6602C905.859 95.7954 907.658 94.5155 909.007 92.8205C910.356 91.0909 911.03 88.9289 911.03 86.3345C911.03 84.2244 910.598 82.443 909.733 80.9901C908.868 79.5372 907.364 78.2228 905.219 77.0466C903.109 75.8705 900.151 74.729 896.346 73.622C891.296 72.1 887.058 70.405 883.634 68.537C880.209 66.6691 877.615 64.4379 875.85 61.8435C874.121 59.2145 873.256 56.0321 873.256 52.2962C873.256 48.4219 874.311 45.0319 876.421 42.1262C878.566 39.2204 881.489 36.972 885.19 35.3808C888.926 33.7549 893.146 32.942 897.851 32.942C903.04 32.942 907.571 33.6858 911.445 35.1732C915.32 36.6607 918.779 38.7881 921.823 41.5554L915.493 48.7159C912.968 46.502 910.252 44.8935 907.346 43.8903C904.475 42.8872 901.552 42.3856 898.577 42.3856C896.156 42.3856 893.959 42.7315 891.988 43.4234C890.016 44.1152 888.459 45.1357 887.318 46.4847C886.176 47.8338 885.605 49.5461 885.605 51.6216C885.605 53.455 886.107 55.0289 887.11 56.3434C888.148 57.6579 889.877 58.8859 892.299 60.0274C894.755 61.1344 898.11 62.3278 902.365 63.6077C906.378 64.7838 909.975 66.2367 913.158 67.9663C916.375 69.6959 918.9 71.9616 920.733 74.7636C922.601 77.5655 923.535 81.2322 923.535 85.7638Z" fill="#919194"/>
</svg>
