<svg width="931" height="144" viewBox="0 0 931 144" fill="none" xmlns="http://www.w3.org/2000/svg">
<path fill-rule="evenodd" clip-rule="evenodd" d="M22.1605 10.776C34.7792 4.3897 50.3173 0 67.027 0C82.883 0 98.9643 4.18895 111.623 10.5956C113.859 11.727 114.754 14.4566 113.622 16.6923C112.491 18.928 109.761 19.8231 107.526 18.6916C96.084 12.901 81.4011 9.07387 67.027 9.07387C51.883 9.07387 37.7397 13.0612 26.2579 18.8721C24.0222 20.0036 21.2926 19.1085 20.1612 16.8728C19.0297 14.6371 19.9248 11.9075 22.1605 10.776ZM30.0506 24.6097C41.0022 19.4975 55.0693 16.7843 66.9749 16.7843C78.8995 16.7843 92.6162 19.5046 103.553 24.6097C115.73 30.2939 125.931 38.5504 132.928 48.2684C134.392 50.3018 133.931 53.1371 131.897 54.6012C129.864 56.0653 127.029 55.6037 125.564 53.5703C119.567 45.2406 110.638 37.9311 99.7144 32.8318C90.1075 28.3473 77.7217 25.8582 66.9749 25.8582C56.2093 25.8582 43.4805 28.3544 33.8887 32.8318C23.4361 37.7111 14.0692 45.5616 8.22902 53.737C6.77252 55.7759 3.93896 56.248 1.90007 54.7915C-0.138815 53.335 -0.610937 50.5015 0.845557 48.4626C7.63875 38.9531 18.2536 30.1165 30.0506 24.6097ZM66.397 33.2078C89.7656 32.9831 110.157 45.0169 120.506 62.3053C125.938 71.3796 127.828 80.5019 127.828 88.2779C127.828 101.52 115.737 109.78 104.882 109.78C99.4452 109.78 93.6695 108.325 89.0917 104.835C84.3746 101.238 81.2573 95.7116 81.0362 88.4153C80.9038 84.0459 78.9053 81.1525 76.1626 79.2145C73.269 77.1699 69.5248 76.211 66.4406 76.211C58.0504 76.211 52.208 82.3839 52.208 88.2779C52.208 93.1922 53.7509 100.092 55.7858 104.66C57.8482 109.289 61.5479 114.678 65.1534 117.941L65.1965 117.98L65.2386 118.02C71.1412 123.643 78.5218 128.652 89.3453 131.117C91.7884 131.674 93.3179 134.105 92.7614 136.548C92.205 138.992 89.7733 140.521 87.3302 139.965C74.5985 137.065 65.8206 131.097 59.021 124.629C54.3494 120.386 49.9793 113.923 47.4973 108.352C44.9801 102.702 43.1342 94.549 43.1342 88.2779C43.1342 76.4851 53.9751 67.1371 66.4406 67.1371C71.1169 67.1371 76.7575 68.5244 81.3988 71.8039C86.1909 75.1899 89.8774 80.5984 90.1059 88.1405C90.2458 92.7556 92.0916 95.7115 94.5936 97.6193C97.2348 99.6332 100.934 100.706 104.882 100.706C112.087 100.706 118.754 95.2488 118.754 88.2779C118.754 81.9767 117.227 74.4952 112.72 66.9657C104.072 52.5177 86.7209 42.0867 66.4842 42.2813C48.9242 42.4501 30.2513 50.7432 20.7082 66.7756C16.6405 73.6094 14.5999 81.4189 14.8474 89.5843C15.1879 100.822 16.8261 105.538 19.7905 113.385C20.676 115.729 19.4937 118.347 17.1497 119.233C14.8057 120.118 12.1877 118.936 11.3022 116.592C8.13035 108.196 6.15905 102.445 5.77767 89.8591C5.47821 79.9769 7.95505 70.4606 12.9111 62.1345C24.4236 42.7935 46.418 33.3999 66.397 33.2078ZM24.5451 87.5135C24.5723 66.596 44.7023 50.1724 66.4406 50.1724C88.0587 50.1724 109.058 65.0584 109.058 88.8193C109.058 91.325 107.027 93.3562 104.521 93.3562C102.015 93.3562 99.9842 91.325 99.9842 88.8193C99.9842 71.4316 84.5273 59.2462 66.4406 59.2462C48.4889 59.2462 33.619 72.7595 33.619 87.556V87.5975L33.6182 87.639C33.4671 95.8965 34.7817 103.775 39.0797 112.206C43.4651 120.808 48.737 126.651 53.5565 130.894C55.4373 132.549 55.6198 135.416 53.9642 137.297C52.3086 139.178 49.4417 139.36 47.5609 137.705C42.052 132.855 35.9952 126.134 30.9958 116.327C25.9163 106.363 24.3768 96.9767 24.5451 87.5135ZM66.4406 83.7409C68.9463 83.7409 70.9775 85.7722 70.9775 88.2779C70.9775 93.1775 72.3215 97.8201 74.8812 102.251C77.3442 106.516 80.549 109.591 84.9459 112.257C91.3453 115.748 95.7381 116.94 102.42 116.77L102.451 116.769L102.482 116.768C105.121 116.737 108.217 116.519 110.659 116.093C113.128 115.663 115.478 117.315 115.908 119.783C116.339 122.252 114.687 124.602 112.218 125.032C109.162 125.565 105.568 125.805 102.621 125.841C94.0942 126.055 88.1282 124.341 80.5057 120.171L80.4221 120.125L80.3405 120.076C74.7916 116.729 70.3792 112.599 67.0239 106.79C63.7501 101.122 61.9037 94.9287 61.9037 88.2779C61.9037 85.7722 63.9349 83.7409 66.4406 83.7409Z" fill="#F04405"/>
<path d="M180.381 48.5271V71.3059H207.31V80.4381H180.381V111H168.343V39.3949H212.395L211.046 48.5271H180.381ZM253.45 56.2065V102.49H268.342V111H225.43V102.49H241.827V64.7161H225.949V56.2065H253.45ZM245.355 29.3805C247.638 29.3805 249.472 30.0724 250.855 31.4561C252.274 32.8397 252.983 34.5693 252.983 36.6448C252.983 38.7203 252.274 40.4672 250.855 41.8855C249.472 43.3038 247.638 44.0129 245.355 44.0129C243.141 44.0129 241.325 43.3038 239.907 41.8855C238.489 40.4672 237.78 38.7203 237.78 36.6448C237.78 34.5693 238.489 32.8397 239.907 31.4561C241.325 30.0724 243.141 29.3805 245.355 29.3805ZM282.622 111V56.2065H292.636L293.519 63.3151C295.802 60.5132 298.5 58.3858 301.613 56.933C304.726 55.4801 307.926 54.7537 311.212 54.7537C316.332 54.7537 320.154 56.1892 322.679 59.0603C325.239 61.8969 326.519 65.8922 326.519 71.0464V111H314.896V76.806C314.896 73.6235 314.706 71.0637 314.326 69.1266C313.945 67.1894 313.184 65.7885 312.042 64.9237C310.936 64.0589 309.275 63.6265 307.061 63.6265C305.297 63.6265 303.619 64.007 302.028 64.768C300.437 65.529 298.984 66.5322 297.67 67.7775C296.355 68.9882 295.214 70.2854 294.245 71.6691V111H282.622ZM387.862 49.2536L390.975 58.9047C388.796 59.6311 386.392 60.1154 383.763 60.3575C381.168 60.5997 378.263 60.7208 375.046 60.7208C378.332 62.1736 380.805 64.0416 382.466 66.3246C384.126 68.5731 384.956 71.3405 384.956 74.6267C384.956 78.1896 384.091 81.3721 382.362 84.174C380.632 86.976 378.159 89.1725 374.942 90.7638C371.725 92.355 367.868 93.1506 363.371 93.1506C361.78 93.1506 360.396 93.0814 359.22 92.9431C358.078 92.8047 356.954 92.5798 355.847 92.2685C355.155 92.7528 354.567 93.41 354.083 94.2403C353.633 95.0359 353.408 95.8834 353.408 96.7828C353.408 97.8897 353.858 98.8583 354.757 99.6885C355.691 100.484 357.525 100.882 360.258 100.882H369.805C373.714 100.882 377.156 101.556 380.131 102.906C383.14 104.22 385.492 106.036 387.187 108.354C388.917 110.637 389.782 113.231 389.782 116.137C389.782 121.602 387.429 125.84 382.725 128.849C378.02 131.859 371.24 133.364 362.385 133.364C356.124 133.364 351.212 132.724 347.649 131.444C344.086 130.164 341.578 128.261 340.125 125.736C338.672 123.211 337.946 120.115 337.946 116.448H348.375C348.375 118.351 348.738 119.925 349.465 121.17C350.226 122.415 351.627 123.349 353.668 123.972C355.709 124.595 358.649 124.906 362.489 124.906C366.328 124.906 369.373 124.577 371.621 123.92C373.904 123.297 375.547 122.381 376.55 121.17C377.588 119.994 378.107 118.576 378.107 116.915C378.107 114.701 377.138 112.989 375.201 111.778C373.264 110.568 370.67 109.962 367.418 109.962H358.026C352.838 109.962 349.033 108.907 346.611 106.797C344.224 104.687 343.031 102.231 343.031 99.429C343.031 97.5611 343.55 95.7623 344.587 94.0327C345.66 92.3031 347.182 90.7984 349.154 89.5185C345.867 87.7889 343.463 85.6961 341.941 83.24C340.454 80.7494 339.71 77.7399 339.71 74.2116C339.71 70.3373 340.679 66.9473 342.616 64.0416C344.553 61.1359 347.234 58.8701 350.658 57.2443C354.118 55.6185 358.096 54.8056 362.593 54.8056C366.986 54.8056 370.652 54.5807 373.593 54.131C376.533 53.6467 379.093 52.9722 381.272 52.1074C383.486 51.2426 385.683 50.2913 387.862 49.2536ZM362.696 62.7963C358.995 62.7963 356.21 63.8513 354.342 65.9614C352.474 68.0369 351.54 70.7524 351.54 74.1078C351.54 77.567 352.492 80.3516 354.394 82.4617C356.331 84.5372 359.151 85.575 362.852 85.575C366.277 85.575 368.888 84.5718 370.687 82.5655C372.52 80.5592 373.437 77.7054 373.437 74.004C373.437 70.2681 372.538 67.4662 370.739 65.5982C368.94 63.7302 366.259 62.7963 362.696 62.7963ZM410.496 87.3392C410.738 91.0751 411.534 94.1365 412.883 96.5233C414.232 98.8756 415.996 100.605 418.176 101.712C420.39 102.819 422.811 103.372 425.44 103.372C428.138 103.372 430.629 102.957 432.912 102.127C435.195 101.297 437.495 100.121 439.813 98.5988L444.846 105.552C442.286 107.627 439.294 109.288 435.869 110.533C432.445 111.778 428.778 112.401 424.869 112.401C419.196 112.401 414.388 111.19 410.444 108.769C406.535 106.347 403.561 102.975 401.52 98.6507C399.479 94.3267 398.458 89.3282 398.458 83.6551C398.458 78.155 399.461 73.243 401.468 68.919C403.474 64.5605 406.345 61.1186 410.081 58.5934C413.817 56.0336 418.279 54.7537 423.468 54.7537C428.346 54.7537 432.531 55.8606 436.025 58.0745C439.553 60.2884 442.269 63.4362 444.171 67.5181C446.109 71.5653 447.077 76.4428 447.077 82.1504C447.077 83.0844 447.043 84.0184 446.973 84.9523C446.939 85.8517 446.887 86.6473 446.818 87.3392H410.496ZM423.572 63.367C419.94 63.367 416.93 64.6642 414.544 67.2586C412.191 69.853 410.825 73.9003 410.444 79.4004H435.817C435.714 74.2462 434.607 70.2854 432.497 67.5181C430.421 64.7507 427.446 63.367 423.572 63.367ZM460.476 111V102.698H468.518V64.4567H460.476V56.2065H477.391L479.518 68.919C481.559 64.3183 484.084 60.8245 487.094 58.4377C490.138 56.0163 494.047 54.8056 498.821 54.8056C500.446 54.8056 501.899 54.9439 503.179 55.2207C504.494 55.4628 505.791 55.7914 507.071 56.2065L503.594 66.169C502.487 65.8576 501.45 65.6328 500.481 65.4944C499.512 65.3215 498.44 65.235 497.264 65.235C493.286 65.235 489.844 66.7224 486.938 69.6973C484.067 72.6722 481.801 76.8924 480.141 82.358V102.698H491.193V111H460.476ZM496.797 76.3909V62.9L498.25 56.2065H507.071L505.099 76.3909H496.797ZM545.79 54.7537C550.633 54.7537 554.507 55.9471 557.413 58.3339C560.319 60.6862 562.429 64.0243 563.744 68.3483C565.058 72.6376 565.715 77.6881 565.715 83.4995C565.715 89.0688 564.92 94.0327 563.328 98.3913C561.737 102.75 559.368 106.174 556.22 108.665C553.107 111.156 549.232 112.401 544.597 112.401C538.855 112.401 534.219 110.377 530.691 106.33V132.066L519.068 133.364V56.2065H529.186L529.913 63.2633C531.988 60.4267 534.392 58.2993 537.125 56.8811C539.892 55.4628 542.781 54.7537 545.79 54.7537ZM542.573 63.7302C539.979 63.7302 537.696 64.5086 535.724 66.0652C533.752 67.6218 532.075 69.4552 530.691 71.5653V97.1979C532.005 99.1696 533.562 100.692 535.361 101.764C537.194 102.802 539.252 103.321 541.536 103.321C545.444 103.321 548.419 101.747 550.46 98.5988C552.501 95.451 553.522 90.4351 553.522 83.5514C553.522 78.8815 553.107 75.0937 552.276 72.188C551.481 69.2476 550.27 67.103 548.644 65.7539C547.053 64.4048 545.029 63.7302 542.573 63.7302ZM578.699 111V102.698H586.741V64.4567H578.699V56.2065H595.614L597.741 68.919C599.782 64.3183 602.307 60.8245 605.317 58.4377C608.361 56.0163 612.27 54.8056 617.044 54.8056C618.669 54.8056 620.122 54.9439 621.402 55.2207C622.717 55.4628 624.014 55.7914 625.294 56.2065L621.817 66.169C620.71 65.8576 619.673 65.6328 618.704 65.4944C617.735 65.3215 616.663 65.235 615.487 65.235C611.509 65.235 608.067 66.7224 605.161 69.6973C602.29 72.6722 600.024 76.8924 598.364 82.358V102.698H609.416V111H578.699ZM615.02 76.3909V62.9L616.473 56.2065H625.294L623.322 76.3909H615.02ZM667.23 56.2065V102.49H682.122V111H639.211V102.49H655.608V64.7161H639.73V56.2065H667.23ZM659.136 29.3805C661.419 29.3805 663.252 30.0724 664.636 31.4561C666.054 32.8397 666.763 34.5693 666.763 36.6448C666.763 38.7203 666.054 40.4672 664.636 41.8855C663.252 43.3038 661.419 44.0129 659.136 44.0129C656.922 44.0129 655.106 43.3038 653.688 41.8855C652.269 40.4672 651.56 38.7203 651.56 36.6448C651.56 34.5693 652.269 32.8397 653.688 31.4561C655.106 30.0724 656.922 29.3805 659.136 29.3805ZM696.403 111V56.2065H706.417L707.299 63.3151C709.582 60.5132 712.28 58.3858 715.394 56.933C718.507 55.4801 721.707 54.7537 724.993 54.7537C730.112 54.7537 733.935 56.1892 736.46 59.0603C739.02 61.8969 740.3 65.8922 740.3 71.0464V111H728.677V76.806C728.677 73.6235 728.487 71.0637 728.106 69.1266C727.726 67.1894 726.965 65.7885 725.823 64.9237C724.716 64.0589 723.056 63.6265 720.842 63.6265C719.078 63.6265 717.4 64.007 715.809 64.768C714.218 65.529 712.765 66.5322 711.45 67.7775C710.136 68.9882 708.994 70.2854 708.026 71.6691V111H696.403ZM801.279 108.094C799.273 109.374 796.869 110.412 794.067 111.208C791.265 112.003 788.342 112.401 785.298 112.401C778.933 112.401 774.09 110.758 770.769 107.472C767.483 104.151 765.84 99.7922 765.84 94.3959V64.6642H753.646V56.2065H765.84V43.961L777.463 42.56V56.2065H795.935L794.638 64.6642H777.463V94.2921C777.463 97.2324 778.189 99.429 779.642 100.882C781.129 102.3 783.551 103.009 786.906 103.009C788.913 103.009 790.763 102.767 792.458 102.283C794.153 101.799 795.693 101.176 797.076 100.415L801.279 108.094ZM861.221 39.3949V86.4571C861.221 89.8817 860.737 93.1506 859.768 96.2639C858.799 99.3771 857.26 102.144 855.15 104.566C853.075 106.953 850.376 108.855 847.056 110.274C843.769 111.657 839.791 112.349 835.121 112.349C831.178 112.349 827.528 111.778 824.173 110.637C820.818 109.495 817.67 107.869 814.729 105.759L819.659 98.0799C822.495 99.9479 825.107 101.211 827.494 101.868C829.915 102.525 832.302 102.854 834.654 102.854C839.151 102.854 842.697 101.418 845.291 98.5469C847.92 95.6758 849.235 91.5594 849.235 86.1976V48.6309H827.701V39.3949H861.221ZM924.535 90.7638C924.535 94.984 923.446 98.7372 921.266 102.023C919.122 105.275 916.008 107.818 911.927 109.651C907.879 111.484 902.985 112.401 897.242 112.401C891.431 112.401 886.329 111.536 881.935 109.807C877.577 108.042 873.893 105.707 870.883 102.802L877.473 95.4337C880.033 97.7513 882.921 99.5847 886.138 100.934C889.355 102.248 893.039 102.906 897.19 102.906C899.889 102.906 902.362 102.49 904.61 101.66C906.859 100.795 908.658 99.5155 910.007 97.8205C911.356 96.0909 912.03 93.9289 912.03 91.3345C912.03 89.2244 911.598 87.443 910.733 85.9901C909.868 84.5372 908.364 83.2228 906.219 82.0466C904.109 80.8705 901.151 79.729 897.346 78.622C892.296 77.1 888.058 75.405 884.634 73.537C881.209 71.6691 878.615 69.4379 876.85 66.8435C875.121 64.2145 874.256 61.0321 874.256 57.2962C874.256 53.4219 875.311 50.0319 877.421 47.1262C879.566 44.2204 882.489 41.972 886.19 40.3808C889.926 38.7549 894.146 37.942 898.851 37.942C904.04 37.942 908.571 38.6858 912.445 40.1732C916.32 41.6607 919.779 43.7881 922.823 46.5554L916.493 53.7159C913.968 51.502 911.252 49.8935 908.346 48.8903C905.475 47.8872 902.552 47.3856 899.577 47.3856C897.156 47.3856 894.959 47.7315 892.988 48.4234C891.016 49.1152 889.459 50.1357 888.318 51.4847C887.176 52.8338 886.605 54.5461 886.605 56.6216C886.605 58.455 887.107 60.0289 888.11 61.3434C889.148 62.6579 890.877 63.8859 893.299 65.0274C895.755 66.1344 899.11 67.3278 903.365 68.6077C907.378 69.7838 910.975 71.2367 914.158 72.9663C917.375 74.6959 919.9 76.9616 921.733 79.7636C923.601 82.5655 924.535 86.2322 924.535 90.7638Z" fill="#0D102B"/>
</svg>
