<svg xmlns="http://www.w3.org/2000/svg" width="478" height="420" viewBox="0 0 478 420">
    <g fill="none" fill-rule="evenodd" stroke-linecap="round" stroke-linejoin="round" opacity=".5">
        <g stroke="#9D97AD">
            <g>
                <path stroke-width="2" d="M366.608 151.97c.047-10.53-3.625-20.173-13.914-27.864-14.926-11.157-36.376-13.79-56.4-13.445-20.024.347-40.146 3.152-59.979.813-28.175-3.324-52.959-16.62-78.707-26.738-43.842-17.226-116.727-16.609-88.402 40.73 7.07 14.31 19.002 26.52 28.13 39.993 18.886 27.878 25.246 60.236 36.232 90.924 10.986 30.689 28.823 62.074 61.94 78.215 43.764 21.33 107.347 5.386 129.822-32.552 13.115-22.14 12.834-49.202 16.68-74.069 3.213-20.76 24.482-50.904 24.598-76.007z" transform="translate(-1375 -3343) translate(1377 3344)"/>
                <path stroke-width=".7" d="M354.247 156.653c.042-9.672-3.332-18.53-12.783-25.595-13.71-10.25-33.415-12.669-51.808-12.352-18.396.32-36.88 2.896-55.098.748-25.882-3.053-48.649-15.268-72.301-24.562-40.273-15.824-110.915-24.159-84.896 28.512 6.495 13.146 24.294 34.221 32.68 46.598 17.348 25.608 20.041 54.375 30.133 82.566 10.092 28.19 26.476 57.021 56.898 71.848 40.202 19.594 98.61 4.948 119.255-29.902 12.048-20.338 11.79-45.197 15.322-68.04 2.952-19.07 22.49-46.76 22.598-69.821z" transform="translate(-1375 -3343) translate(1377 3344)"/>
                <path stroke-width="2" d="M440.929 69.488c-24.47-18.292-59.64-22.611-92.468-22.045-32.832.57-65.822 5.169-98.34 1.334-46.193-5.45-85.052-31.906-129.043-43.838C44.418-15.856-32.34 29.997 14.1 124.005c11.592 23.463 49.553 112.04 67.565 162.355 18.012 50.315 51.107 90.755 105.403 117.218 71.753 34.97 142.691 2.769 179.54-59.432 21.504-36.299 41.647-59.089 67.329-101.153 78.074-127.876 23.86-160.895 6.992-173.505z" transform="translate(-1375 -3343) translate(1377 3344)"/>
                <path stroke-dasharray="8 3" stroke-width=".709" d="M247.652 142.44c-22.898-6.614-83.25-20.413-101.217-2.013-27.445 28.108 35.86 74.114 41.505 103.064 2.556 13.114 1.132 28.29 12.445 37.629 9.601 7.924 25.476 8.243 37.878 3.792 68.098-24.447 89.869-119.224 9.389-142.472z" transform="translate(-1375 -3343) translate(1377 3344)"/>
                <path stroke-dasharray="8 3" stroke-width=".709" d="M249.474 135.957c-25.646-7.408-93.24-22.862-113.363-2.254-30.738 31.48 40.163 83.008 46.485 115.432 2.863 14.687 1.268 31.685 13.939 42.143 10.753 8.876 28.533 9.233 42.423 4.247 76.27-27.38 100.653-133.53 10.516-159.568z" transform="translate(-1375 -3343) translate(1377 3344)"/>
                <path stroke-width=".709" d="M216.997 211.836c15.798 5.24 32.096 5.88 42.943-1.979 15.372-11.141 11.107-33.439-4.6-44.263-11.84-8.16-70.824-19.252-81.932-6.977-14.888 16.45 13.44 43.215 43.589 53.219z" transform="translate(-1375 -3343) translate(1377 3344)"/>
                <path stroke-width=".709" d="M217.604 204.992c11.848 3.93 24.072 4.41 32.207-1.484 11.529-8.356 8.33-25.08-3.45-33.197-8.88-6.12-53.118-14.44-61.449-5.233-11.166 12.337 10.08 32.411 32.692 39.914z" transform="translate(-1375 -3343) translate(1377 3344)"/>
                <path stroke-width=".7" d="M99.494 252.457c37.685 70.87 98.752 142.864 188.908 122.684 43.77-9.8 64.107-54.276 80.954-84.884 22.248-40.424 41.06-82.088 59.88-123.684 2.167-4.791 4.36-9.682 4.642-14.798 3.22-58.592-126.451-70.04-171.151-71.464-62.492-1.99-120.951-48.798-185.615-28.548-67.36 21.1-26.893 80.514-12.764 119.986 7.99 22.32 19.571 51.418 35.146 80.708z" transform="translate(-1375 -3343) translate(1377 3344)"/>
                <path stroke-width=".7" d="M90.437 255.087c40.174 75.55 105.273 152.297 201.383 130.785 46.66-10.446 68.34-57.86 86.3-90.49 23.716-43.093 43.771-87.508 63.834-131.851 2.31-5.108 4.649-10.322 4.948-15.775 3.434-62.461-134.8-74.666-182.453-76.184-66.618-2.12-128.938-52.02-197.872-30.433C-5.23 63.633 37.908 126.97 52.97 169.05c8.517 23.793 20.863 54.813 37.467 86.038z" transform="translate(-1375 -3343) translate(1377 3344)"/>
            </g>
        </g>
    </g>
</svg>
