<svg xmlns="http://www.w3.org/2000/svg" width="606" height="533" viewBox="0 0 606 533">
    <g fill="none" fill-rule="evenodd" stroke-linecap="round" stroke-linejoin="round" opacity=".108">
        <g stroke="#B9C0F9">
            <g>
                <path stroke-width="2" d="M466 192.633c.06-13.333-4.607-25.545-17.68-35.285-18.967-14.129-46.225-17.465-71.669-17.027-25.446.44-51.015 3.992-76.217 1.03-35.803-4.209-67.297-21.048-100.016-33.86-55.71-21.815-148.327-21.033-112.334 51.578 8.984 18.123 24.146 33.586 35.746 50.647 23.998 35.303 32.08 76.28 46.04 115.144 13.96 38.863 36.626 78.609 78.708 99.049 55.613 27.01 136.41 6.82 164.969-41.223 16.666-28.037 16.308-62.308 21.196-93.8 4.083-26.288 31.11-64.462 31.257-96.253z" transform="translate(174 -2760) translate(-172 2761)"/>
                <path stroke-width=".7" d="M450 198.428c.052-12.249-4.234-23.468-16.245-32.416-17.424-12.98-42.464-16.044-65.838-15.642-23.377.404-46.866 3.668-70.018.947-32.89-3.867-61.823-19.337-91.88-31.107-51.18-20.04-140.951-30.595-107.886 36.11 8.253 16.649 30.873 43.339 41.53 59.013 22.045 32.432 25.468 68.864 38.293 104.566 12.824 35.702 33.646 72.216 72.305 90.993 51.09 24.814 125.313 6.266 151.55-37.87 15.31-25.757 14.982-57.24 19.472-86.17 3.75-24.15 28.58-59.219 28.717-88.424z" transform="translate(174 -2760) translate(-172 2761)"/>
                <path stroke-width="2" d="M559.76 88.113C528.696 64.917 484.049 59.44 442.373 60.16c-41.68.721-83.561 6.553-124.841 1.69-58.643-6.91-107.976-40.457-163.822-55.588C56.39-20.106-41.055 38.037 17.9 157.242c14.717 29.752 62.909 142.07 85.775 205.871 22.866 63.801 64.88 115.08 133.81 148.636 91.09 44.343 181.146 3.51 227.926-75.362 27.3-46.028 52.87-74.926 85.474-128.265 99.116-162.15 30.292-204.02 8.877-220.01z" transform="translate(174 -2760) translate(-172 2761)"/>
                <path stroke-dasharray="8 3" stroke-width=".709" d="M314.38 180.246c-29.105-8.407-105.815-25.947-128.652-2.558-34.884 35.728 45.58 94.208 52.754 131.007 3.25 16.669 1.44 35.961 15.82 47.83 12.203 10.074 32.38 10.48 48.143 4.82 86.556-31.074 114.229-151.547 11.935-181.099z" transform="translate(174 -2760) translate(-172 2761)"/>
                <path stroke-dasharray="8 3" stroke-width=".709" d="M316.622 172.893c-32.546-9.38-118.325-28.946-143.862-2.854-39.008 39.857 50.968 105.097 58.991 146.149 3.633 18.595 1.61 40.117 17.69 53.358 13.646 11.237 36.208 11.69 53.835 5.377 96.79-34.666 127.733-169.063 13.346-202.03z" transform="translate(174 -2760) translate(-172 2761)"/>
                <path stroke-width=".709" d="M275.425 268.035c20.02 6.611 40.676 7.418 54.423-2.496 19.481-14.056 14.076-42.185-5.83-55.84-15.004-10.293-89.757-24.287-103.835-8.802-18.868 20.752 17.033 54.518 55.242 67.138z" transform="translate(174 -2760) translate(-172 2761)"/>
                <path stroke-width=".709" d="M276.2 260.229c14.976 5.021 30.427 5.634 40.71-1.896 14.573-10.675 10.53-32.039-4.361-42.41-11.224-7.818-67.141-18.446-77.672-6.685-14.114 15.762 12.74 41.406 41.322 50.991z" transform="translate(174 -2760) translate(-172 2761)"/>
                <path stroke-width=".7" d="M126.356 320.007c47.849 89.896 125.386 181.218 239.858 155.62C421.788 463.197 447.61 406.78 469 367.954c28.248-51.276 52.135-104.126 76.03-156.89 2.751-6.077 5.537-12.28 5.894-18.77 4.09-74.322-160.555-88.844-217.312-90.65-79.346-2.523-153.572-61.899-235.676-36.212C12.41 92.197 63.791 167.562 81.73 217.63c10.145 28.311 24.85 65.221 44.626 102.376z" transform="translate(174 -2760) translate(-172 2761)"/>
                <path stroke-width=".7" d="M114.385 323.366c51.001 95.875 133.645 193.27 255.657 165.97C429.277 476.08 456.8 415.91 479.6 374.502c30.109-54.687 55.569-111.051 81.038-167.324 2.932-6.481 5.902-13.098 6.282-20.019 4.36-79.265-171.13-94.753-231.626-96.679-84.572-2.691-163.687-66.015-251.199-38.62-91.161 28.545-36.396 108.922-17.274 162.32 10.813 30.195 26.486 69.56 47.564 109.186z" transform="translate(174 -2760) translate(-172 2761)"/>
            </g>
        </g>
    </g>
</svg>
